<?xml version="1.0" encoding="UTF-8"?>
<svg width="1000px" height="231px" viewBox="0 0 1000 231" version="1.1" xmlns="http://www.w3.org/2000/svg" xmlns:xlink="http://www.w3.org/1999/xlink">
    <!-- Generator: Sketch 43.2 (39069) - http://www.bohemiancoding.com/sketch -->
    <title>Slice</title>
    <desc>Created with Sketch.</desc>
    <defs></defs>
    <g id="Page-1" stroke="none" stroke-width="1" fill="none" fill-rule="evenodd">
        <g id="Group-3" transform="translate(4.000000, 31.000000)">
            <g id="Group-2" fill-rule="nonzero" fill="#000000">
                <path d="M0.036621,122.235766 C0.036621,123.266357 0.875244,124.101947 1.911621,124.101947 C2.947998,124.101947 3.786621,123.266357 3.786621,122.235766 C3.786621,117.995853 7.26013181,114.54597 11.5283201,114.54597 C15.7983397,114.54597 19.2718504,117.995853 19.2718504,122.235766 C19.2718504,123.266357 20.1104734,124.101947 21.1468504,124.101947 C22.1832274,124.101947 23.0218504,123.266357 23.0218504,122.235766 C23.0218504,116.573323 18.8499067,111.873472 13.4033201,110.97945 L13.4033201,105.259715 L20.26062,105.259715 C21.296997,105.259715 22.13562,104.424125 22.13562,103.393534 L22.13562,64.8789482 L31.3256835,64.8789482 L31.3256835,113.238368 C31.3256835,114.268959 32.1643065,115.104549 33.2006835,115.104549 L43.7274169,115.104549 L43.7274169,123.222618 L38.9483642,123.222618 C32.0599365,123.222618 26.4550781,128.800203 26.4550781,135.65532 L26.4550781,136.861777 C26.4550781,143.716894 32.0599365,149.294479 38.9483642,149.294479 L111.051636,149.294479 C117.940063,149.294479 123.544922,143.716894 123.544922,136.861777 L123.544922,135.65532 C123.544922,128.800203 117.940063,123.222618 111.051636,123.222618 L106.272583,123.222618 L106.272583,115.104548 L116.799316,115.104548 C117.835693,115.104548 118.674316,114.268959 118.674316,113.238367 L118.674316,64.8789482 L127.86438,64.8789482 L127.86438,102.800329 C127.86438,103.83092 128.703003,104.66651 129.73938,104.66651 L136.59668,104.66651 L136.59668,110.387157 C131.150207,111.281178 126.978149,115.98103 126.978149,121.643472 C126.978149,122.674063 127.816772,123.509653 128.853149,123.509653 C129.889526,123.509653 130.728149,122.674063 130.728149,121.643472 C130.728149,117.40356 134.20166,113.953676 138.47168,113.953676 C142.739868,113.953676 146.213379,117.40356 146.213379,121.643472 C146.213379,122.674063 147.052002,123.509653 148.088379,123.509653 C149.124756,123.509653 149.963379,122.674063 149.963379,121.643472 C149.963379,115.98103 145.792923,111.281178 140.34668,110.387157 L140.34668,104.66651 L147.683716,104.66651 C148.720093,104.66651 149.558716,103.83092 149.558716,102.800329 L149.558716,68.1857699 C149.558716,61.0682214 143.741455,55.2783219 136.591186,55.2783219 L129.73938,55.2783219 C128.703003,55.2783219 127.86438,56.1139117 127.86438,57.1445029 L127.86438,61.1465862 L118.674316,61.1465862 L118.674316,57.7367966 C118.674316,56.7062055 117.835693,55.8706156 116.799316,55.8706156 L87.9693604,55.8706156 L87.9693604,46.3128167 L110.321045,46.3128167 C111.357422,46.3128167 112.196045,45.4772269 112.196045,44.4466357 L112.196045,1.86618098 C112.196045,0.835589813 111.357422,0 110.321045,0 L39.6789551,0 C38.6425781,0 37.8039551,0.835589813 37.8039551,1.86618098 L37.8039551,44.4466356 C37.8039551,45.4772267 38.6425781,46.3128165 39.6789551,46.3128165 L62.0306396,46.3128165 L62.0306396,55.8706155 L33.2006835,55.8706155 C32.1643065,55.8706155 31.3256835,56.7062053 31.3256835,57.7367964 L31.3256835,61.146586 L22.13562,61.146586 L22.13562,57.7367964 C22.13562,56.7062053 21.296997,55.8706155 20.26062,55.8706155 L13.4088133,55.8706155 C6.25854469,55.8706155 0.441284063,61.6605149 0.441284063,68.7780635 L0.441284063,103.393534 C0.441284063,104.424125 1.27990706,105.259715 2.31628406,105.259715 L9.65332013,105.259715 L9.65332013,110.97945 C4.207077,111.873472 0.036621,116.573323 0.036621,122.235766 Z M131.61438,59.0106839 L136.591186,59.0106839 C141.674194,59.0106839 145.808716,63.1266699 145.808716,68.1857699 L145.808716,100.934148 L131.61438,100.934148 L131.61438,59.0106839 Z M119.794922,135.65532 L119.794922,136.861777 C119.794922,141.659356 115.872803,145.562117 111.051636,145.562117 L38.9483642,145.562117 C34.1271971,145.562117 30.2050781,141.659356 30.2050781,136.861777 L30.2050781,135.65532 C30.2050781,130.85774 34.1271973,126.95498 38.9483642,126.95498 L111.051636,126.95498 C115.872803,126.95498 119.794922,130.85774 119.794922,135.65532 Z M102.522583,123.222618 L47.4774171,123.222618 L47.4774171,115.104549 L102.522583,115.104549 L102.522583,123.222618 L102.522583,123.222618 Z M35.0756835,111.372187 L35.0756835,88.7383635 L114.924316,88.7383635 L114.924316,111.372187 L35.0756835,111.372187 Z M41.5539551,3.73236196 L108.446045,3.73236196 L108.446045,42.5804546 L41.5539551,42.5804546 L41.5539551,3.73236196 Z M65.7806396,46.3128165 L84.2193604,46.3128165 L84.2193604,55.8706155 L65.7806396,55.8706155 L65.7806396,46.3128165 Z M114.924316,59.6029776 L114.924316,85.0060018 L35.0756835,85.0060018 L35.0756835,59.6029776 L114.924316,59.6029776 Z M4.19128425,68.7780637 C4.19128425,63.7189637 8.32580569,59.6029776 13.4088135,59.6029776 L18.3856202,59.6029776 L18.3856202,101.527353 L4.19128425,101.527353 L4.19128425,68.7780637 L4.19128425,68.7780637 Z" id="Shape"></path>
                <path d="M45.6024171,96.0326893 C44.5660401,96.0326893 43.7274171,96.8682791 43.7274171,97.8988703 L43.7274171,103.493768 C43.7274171,104.52436 44.5660401,105.359949 45.6024171,105.359949 C46.6387941,105.359949 47.4774171,104.52436 47.4774171,103.493768 L47.4774171,97.8988703 C47.4774171,96.8682791 46.6387939,96.0326893 45.6024171,96.0326893 Z" id="Shape"></path>
                <path d="M57.3614501,96.0326893 C56.3250731,96.0326893 55.4864501,96.8682791 55.4864501,97.8988703 L55.4864501,103.493768 C55.4864501,104.52436 56.3250731,105.359949 57.3614501,105.359949 C58.3978271,105.359949 59.2364501,104.52436 59.2364501,103.493768 L59.2364501,97.8988703 C59.2364501,96.8682791 58.3978271,96.0326893 57.3614501,96.0326893 Z" id="Shape"></path>
                <path d="M45.6024171,140.922178 C46.6387941,140.922178 47.4774171,140.086589 47.4774171,139.055997 L47.4774171,133.461099 C47.4774171,132.430508 46.6387941,131.594918 45.6024171,131.594918 C44.5660401,131.594918 43.7274171,132.430508 43.7274171,133.461099 L43.7274171,139.055997 C43.7274171,140.086589 44.5660401,140.922178 45.6024171,140.922178 Z" id="Shape"></path>
                <path d="M57.3614501,140.922178 C58.3978271,140.922178 59.2364501,140.086589 59.2364501,139.055997 L59.2364501,133.461099 C59.2364501,132.430508 58.3978271,131.594918 57.3614501,131.594918 C56.3250731,131.594918 55.4864501,132.430508 55.4864501,133.461099 L55.4864501,139.055997 C55.4864501,140.086589 56.3250733,140.922178 57.3614501,140.922178 Z" id="Shape"></path>
                <path d="M69.1204834,140.922178 C70.1568604,140.922178 70.9954834,140.086589 70.9954834,139.055997 L70.9954834,133.461099 C70.9954834,132.430508 70.1568604,131.594918 69.1204834,131.594918 C68.0841064,131.594918 67.2454834,132.430508 67.2454834,133.461099 L67.2454834,139.055997 C67.2454834,140.086589 68.0841064,140.922178 69.1204834,140.922178 Z" id="Shape"></path>
                <path d="M80.8795166,140.922178 C81.9158936,140.922178 82.7545166,140.086589 82.7545166,139.055997 L82.7545166,133.461099 C82.7545166,132.430508 81.9158936,131.594918 80.8795166,131.594918 C79.8431396,131.594918 79.0045166,132.430508 79.0045166,133.461099 L79.0045166,139.055997 C79.0045166,140.086589 79.8431396,140.922178 80.8795166,140.922178 Z" id="Shape"></path>
                <path d="M92.6385499,140.922178 C93.6749269,140.922178 94.5135499,140.086589 94.5135499,139.055997 L94.5135499,133.461099 C94.5135499,132.430508 93.6749269,131.594918 92.6385499,131.594918 C91.6021729,131.594918 90.7635499,132.430508 90.7635499,133.461099 L90.7635499,139.055997 C90.7635499,140.086589 91.6021729,140.922178 92.6385499,140.922178 Z" id="Shape"></path>
                <path d="M104.397583,140.922178 C105.43396,140.922178 106.272583,140.086589 106.272583,139.055997 L106.272583,133.461099 C106.272583,132.430508 105.43396,131.594918 104.397583,131.594918 C103.361206,131.594918 102.522583,132.430508 102.522583,133.461099 L102.522583,139.055997 C102.522583,140.086589 103.361206,140.922178 104.397583,140.922178 Z" id="Shape"></path>
                <path d="M80.8795166,96.0326893 C79.8431396,96.0326893 79.0045166,96.8682791 79.0045166,97.8988703 L79.0045166,103.493768 C79.0045166,104.52436 79.8431396,105.359949 80.8795166,105.359949 C81.9158936,105.359949 82.7545166,104.52436 82.7545166,103.493768 L82.7545166,97.8988703 C82.7545166,96.8682791 81.9158936,96.0326893 80.8795166,96.0326893 Z" id="Shape"></path>
                <path d="M92.6385499,96.0326893 C91.6021729,96.0326893 90.7635499,96.8682791 90.7635499,97.8988703 L90.7635499,103.493768 C90.7635499,104.52436 91.6021729,105.359949 92.6385499,105.359949 C93.6749269,105.359949 94.5135499,104.52436 94.5135499,103.493768 L94.5135499,97.8988703 C94.5135499,96.8682791 93.6749267,96.0326893 92.6385499,96.0326893 Z" id="Shape"></path>
                <path d="M104.397583,96.0326893 C103.361206,96.0326893 102.522583,96.8682791 102.522583,97.8988703 L102.522583,103.493768 C102.522583,104.52436 103.361206,105.359949 104.397583,105.359949 C105.43396,105.359949 106.272583,104.52436 106.272583,103.493768 L106.272583,97.8988703 C106.272583,96.8682791 105.43396,96.0326893 104.397583,96.0326893 Z" id="Shape"></path>
                <path d="M60.1867676,12.2449902 C55.2978516,12.2449902 51.3189697,16.1978677 51.3189697,21.0574103 C51.3189697,25.9169528 55.2978516,29.8698304 60.1867676,29.8698304 C65.0756837,29.8698304 69.0527344,25.9169528 69.0527344,21.0574103 C69.0527344,16.1978677 65.0756835,12.2449902 60.1867676,12.2449902 Z M60.1867676,26.1374684 C57.3651124,26.1374684 55.0689697,23.8585043 55.0689697,21.0574103 C55.0689697,18.2563163 57.3651124,15.9773521 60.1867676,15.9773521 C63.0084229,15.9773521 65.3027344,18.2563163 65.3027344,21.0574103 C65.3027344,23.8585043 63.0084229,26.1374684 60.1867676,26.1374684 Z" id="Shape"></path>
                <path d="M89.8132324,12.2449902 C84.9243163,12.2449902 80.9472656,16.1978677 80.9472656,21.0574103 C80.9472656,25.9169528 84.9243165,29.8698304 89.8132324,29.8698304 C94.7021482,29.8698304 98.6810302,25.9169528 98.6810302,21.0574103 C98.6810302,16.1978677 94.7021484,12.2449902 89.8132324,12.2449902 Z M89.8132324,26.1374684 C86.9915771,26.1374684 84.6972656,23.8585043 84.6972656,21.0574103 C84.6972656,18.2563163 86.9915771,15.9773521 89.8132324,15.9773521 C92.6348876,15.9773521 94.9310302,18.2563163 94.9310302,21.0574103 C94.9310302,23.8585043 92.6348876,26.1374684 89.8132324,26.1374684 Z" id="Shape"></path>
            </g>
            <rect id="Rectangle-2" fill="#FFFFFF" x="26.1290323" y="114.079137" width="97.7419355" height="42.9208633"></rect>
        </g>
        <g id="Group-3" transform="translate(393.000000, 31.000000)">
            <g id="Group-2" fill-rule="nonzero" fill="#000000">
                <path d="M0.036621,122.235766 C0.036621,123.266357 0.875244,124.101947 1.911621,124.101947 C2.947998,124.101947 3.786621,123.266357 3.786621,122.235766 C3.786621,117.995853 7.26013181,114.54597 11.5283201,114.54597 C15.7983397,114.54597 19.2718504,117.995853 19.2718504,122.235766 C19.2718504,123.266357 20.1104734,124.101947 21.1468504,124.101947 C22.1832274,124.101947 23.0218504,123.266357 23.0218504,122.235766 C23.0218504,116.573323 18.8499067,111.873472 13.4033201,110.97945 L13.4033201,105.259715 L20.26062,105.259715 C21.296997,105.259715 22.13562,104.424125 22.13562,103.393534 L22.13562,64.8789482 L31.3256835,64.8789482 L31.3256835,113.238368 C31.3256835,114.268959 32.1643065,115.104549 33.2006835,115.104549 L43.7274169,115.104549 L43.7274169,123.222618 L38.9483642,123.222618 C32.0599365,123.222618 26.4550781,128.800203 26.4550781,135.65532 L26.4550781,136.861777 C26.4550781,143.716894 32.0599365,149.294479 38.9483642,149.294479 L111.051636,149.294479 C117.940063,149.294479 123.544922,143.716894 123.544922,136.861777 L123.544922,135.65532 C123.544922,128.800203 117.940063,123.222618 111.051636,123.222618 L106.272583,123.222618 L106.272583,115.104548 L116.799316,115.104548 C117.835693,115.104548 118.674316,114.268959 118.674316,113.238367 L118.674316,64.8789482 L127.86438,64.8789482 L127.86438,102.800329 C127.86438,103.83092 128.703003,104.66651 129.73938,104.66651 L136.59668,104.66651 L136.59668,110.387157 C131.150207,111.281178 126.978149,115.98103 126.978149,121.643472 C126.978149,122.674063 127.816772,123.509653 128.853149,123.509653 C129.889526,123.509653 130.728149,122.674063 130.728149,121.643472 C130.728149,117.40356 134.20166,113.953676 138.47168,113.953676 C142.739868,113.953676 146.213379,117.40356 146.213379,121.643472 C146.213379,122.674063 147.052002,123.509653 148.088379,123.509653 C149.124756,123.509653 149.963379,122.674063 149.963379,121.643472 C149.963379,115.98103 145.792923,111.281178 140.34668,110.387157 L140.34668,104.66651 L147.683716,104.66651 C148.720093,104.66651 149.558716,103.83092 149.558716,102.800329 L149.558716,68.1857699 C149.558716,61.0682214 143.741455,55.2783219 136.591186,55.2783219 L129.73938,55.2783219 C128.703003,55.2783219 127.86438,56.1139117 127.86438,57.1445029 L127.86438,61.1465862 L118.674316,61.1465862 L118.674316,57.7367966 C118.674316,56.7062055 117.835693,55.8706156 116.799316,55.8706156 L87.9693604,55.8706156 L87.9693604,46.3128167 L110.321045,46.3128167 C111.357422,46.3128167 112.196045,45.4772269 112.196045,44.4466357 L112.196045,1.86618098 C112.196045,0.835589813 111.357422,0 110.321045,0 L39.6789551,0 C38.6425781,0 37.8039551,0.835589813 37.8039551,1.86618098 L37.8039551,44.4466356 C37.8039551,45.4772267 38.6425781,46.3128165 39.6789551,46.3128165 L62.0306396,46.3128165 L62.0306396,55.8706155 L33.2006835,55.8706155 C32.1643065,55.8706155 31.3256835,56.7062053 31.3256835,57.7367964 L31.3256835,61.146586 L22.13562,61.146586 L22.13562,57.7367964 C22.13562,56.7062053 21.296997,55.8706155 20.26062,55.8706155 L13.4088133,55.8706155 C6.25854469,55.8706155 0.441284063,61.6605149 0.441284063,68.7780635 L0.441284063,103.393534 C0.441284063,104.424125 1.27990706,105.259715 2.31628406,105.259715 L9.65332013,105.259715 L9.65332013,110.97945 C4.207077,111.873472 0.036621,116.573323 0.036621,122.235766 Z M131.61438,59.0106839 L136.591186,59.0106839 C141.674194,59.0106839 145.808716,63.1266699 145.808716,68.1857699 L145.808716,100.934148 L131.61438,100.934148 L131.61438,59.0106839 Z M119.794922,135.65532 L119.794922,136.861777 C119.794922,141.659356 115.872803,145.562117 111.051636,145.562117 L38.9483642,145.562117 C34.1271971,145.562117 30.2050781,141.659356 30.2050781,136.861777 L30.2050781,135.65532 C30.2050781,130.85774 34.1271973,126.95498 38.9483642,126.95498 L111.051636,126.95498 C115.872803,126.95498 119.794922,130.85774 119.794922,135.65532 Z M102.522583,123.222618 L47.4774171,123.222618 L47.4774171,115.104549 L102.522583,115.104549 L102.522583,123.222618 L102.522583,123.222618 Z M35.0756835,111.372187 L35.0756835,88.7383635 L114.924316,88.7383635 L114.924316,111.372187 L35.0756835,111.372187 Z M41.5539551,3.73236196 L108.446045,3.73236196 L108.446045,42.5804546 L41.5539551,42.5804546 L41.5539551,3.73236196 Z M65.7806396,46.3128165 L84.2193604,46.3128165 L84.2193604,55.8706155 L65.7806396,55.8706155 L65.7806396,46.3128165 Z M114.924316,59.6029776 L114.924316,85.0060018 L35.0756835,85.0060018 L35.0756835,59.6029776 L114.924316,59.6029776 Z M4.19128425,68.7780637 C4.19128425,63.7189637 8.32580569,59.6029776 13.4088135,59.6029776 L18.3856202,59.6029776 L18.3856202,101.527353 L4.19128425,101.527353 L4.19128425,68.7780637 L4.19128425,68.7780637 Z" id="Shape"></path>
                <path d="M45.6024171,96.0326893 C44.5660401,96.0326893 43.7274171,96.8682791 43.7274171,97.8988703 L43.7274171,103.493768 C43.7274171,104.52436 44.5660401,105.359949 45.6024171,105.359949 C46.6387941,105.359949 47.4774171,104.52436 47.4774171,103.493768 L47.4774171,97.8988703 C47.4774171,96.8682791 46.6387939,96.0326893 45.6024171,96.0326893 Z" id="Shape"></path>
                <path d="M57.3614501,96.0326893 C56.3250731,96.0326893 55.4864501,96.8682791 55.4864501,97.8988703 L55.4864501,103.493768 C55.4864501,104.52436 56.3250731,105.359949 57.3614501,105.359949 C58.3978271,105.359949 59.2364501,104.52436 59.2364501,103.493768 L59.2364501,97.8988703 C59.2364501,96.8682791 58.3978271,96.0326893 57.3614501,96.0326893 Z" id="Shape"></path>
                <path d="M45.6024171,140.922178 C46.6387941,140.922178 47.4774171,140.086589 47.4774171,139.055997 L47.4774171,133.461099 C47.4774171,132.430508 46.6387941,131.594918 45.6024171,131.594918 C44.5660401,131.594918 43.7274171,132.430508 43.7274171,133.461099 L43.7274171,139.055997 C43.7274171,140.086589 44.5660401,140.922178 45.6024171,140.922178 Z" id="Shape"></path>
                <path d="M57.3614501,140.922178 C58.3978271,140.922178 59.2364501,140.086589 59.2364501,139.055997 L59.2364501,133.461099 C59.2364501,132.430508 58.3978271,131.594918 57.3614501,131.594918 C56.3250731,131.594918 55.4864501,132.430508 55.4864501,133.461099 L55.4864501,139.055997 C55.4864501,140.086589 56.3250733,140.922178 57.3614501,140.922178 Z" id="Shape"></path>
                <path d="M69.1204834,140.922178 C70.1568604,140.922178 70.9954834,140.086589 70.9954834,139.055997 L70.9954834,133.461099 C70.9954834,132.430508 70.1568604,131.594918 69.1204834,131.594918 C68.0841064,131.594918 67.2454834,132.430508 67.2454834,133.461099 L67.2454834,139.055997 C67.2454834,140.086589 68.0841064,140.922178 69.1204834,140.922178 Z" id="Shape"></path>
                <path d="M80.8795166,140.922178 C81.9158936,140.922178 82.7545166,140.086589 82.7545166,139.055997 L82.7545166,133.461099 C82.7545166,132.430508 81.9158936,131.594918 80.8795166,131.594918 C79.8431396,131.594918 79.0045166,132.430508 79.0045166,133.461099 L79.0045166,139.055997 C79.0045166,140.086589 79.8431396,140.922178 80.8795166,140.922178 Z" id="Shape"></path>
                <path d="M92.6385499,140.922178 C93.6749269,140.922178 94.5135499,140.086589 94.5135499,139.055997 L94.5135499,133.461099 C94.5135499,132.430508 93.6749269,131.594918 92.6385499,131.594918 C91.6021729,131.594918 90.7635499,132.430508 90.7635499,133.461099 L90.7635499,139.055997 C90.7635499,140.086589 91.6021729,140.922178 92.6385499,140.922178 Z" id="Shape"></path>
                <path d="M104.397583,140.922178 C105.43396,140.922178 106.272583,140.086589 106.272583,139.055997 L106.272583,133.461099 C106.272583,132.430508 105.43396,131.594918 104.397583,131.594918 C103.361206,131.594918 102.522583,132.430508 102.522583,133.461099 L102.522583,139.055997 C102.522583,140.086589 103.361206,140.922178 104.397583,140.922178 Z" id="Shape"></path>
                <path d="M80.8795166,96.0326893 C79.8431396,96.0326893 79.0045166,96.8682791 79.0045166,97.8988703 L79.0045166,103.493768 C79.0045166,104.52436 79.8431396,105.359949 80.8795166,105.359949 C81.9158936,105.359949 82.7545166,104.52436 82.7545166,103.493768 L82.7545166,97.8988703 C82.7545166,96.8682791 81.9158936,96.0326893 80.8795166,96.0326893 Z" id="Shape"></path>
                <path d="M92.6385499,96.0326893 C91.6021729,96.0326893 90.7635499,96.8682791 90.7635499,97.8988703 L90.7635499,103.493768 C90.7635499,104.52436 91.6021729,105.359949 92.6385499,105.359949 C93.6749269,105.359949 94.5135499,104.52436 94.5135499,103.493768 L94.5135499,97.8988703 C94.5135499,96.8682791 93.6749267,96.0326893 92.6385499,96.0326893 Z" id="Shape"></path>
                <path d="M104.397583,96.0326893 C103.361206,96.0326893 102.522583,96.8682791 102.522583,97.8988703 L102.522583,103.493768 C102.522583,104.52436 103.361206,105.359949 104.397583,105.359949 C105.43396,105.359949 106.272583,104.52436 106.272583,103.493768 L106.272583,97.8988703 C106.272583,96.8682791 105.43396,96.0326893 104.397583,96.0326893 Z" id="Shape"></path>
                <path d="M60.1867676,12.2449902 C55.2978516,12.2449902 51.3189697,16.1978677 51.3189697,21.0574103 C51.3189697,25.9169528 55.2978516,29.8698304 60.1867676,29.8698304 C65.0756837,29.8698304 69.0527344,25.9169528 69.0527344,21.0574103 C69.0527344,16.1978677 65.0756835,12.2449902 60.1867676,12.2449902 Z M60.1867676,26.1374684 C57.3651124,26.1374684 55.0689697,23.8585043 55.0689697,21.0574103 C55.0689697,18.2563163 57.3651124,15.9773521 60.1867676,15.9773521 C63.0084229,15.9773521 65.3027344,18.2563163 65.3027344,21.0574103 C65.3027344,23.8585043 63.0084229,26.1374684 60.1867676,26.1374684 Z" id="Shape"></path>
                <path d="M89.8132324,12.2449902 C84.9243163,12.2449902 80.9472656,16.1978677 80.9472656,21.0574103 C80.9472656,25.9169528 84.9243165,29.8698304 89.8132324,29.8698304 C94.7021482,29.8698304 98.6810302,25.9169528 98.6810302,21.0574103 C98.6810302,16.1978677 94.7021484,12.2449902 89.8132324,12.2449902 Z M89.8132324,26.1374684 C86.9915771,26.1374684 84.6972656,23.8585043 84.6972656,21.0574103 C84.6972656,18.2563163 86.9915771,15.9773521 89.8132324,15.9773521 C92.6348876,15.9773521 94.9310302,18.2563163 94.9310302,21.0574103 C94.9310302,23.8585043 92.6348876,26.1374684 89.8132324,26.1374684 Z" id="Shape"></path>
            </g>
            <rect id="Rectangle-2" fill="#FFFFFF" x="26.1290323" y="114.079137" width="97.7419355" height="42.9208633"></rect>
        </g>
        <g id="noun_joystick_719276" transform="translate(42.000000, 123.000000)" fill-rule="nonzero" fill="#000000">
            <path d="M0.5,67.2 C0.5,67.6 0.7,67.9 1.1,68.1 L33.9,84.5 C35.9,85.5 38.2,85.5 40.2,84.5 L73,68.1 C73.3,67.9 73.6,67.6 73.6,67.2 L73.6,57.1 L41,73.3 C39.7,73.9 38.4,74.2 37,74.2 C35.6,74.2 34.2,73.9 33,73.3 L0.5,57.1 L0.5,67.2 Z" id="Shape"></path>
            <path d="M0.5,54.2 C0.5,54.6 0.7,54.9 1.1,55.1 L33.9,71.5 C35.9,72.5 38.2,72.5 40.2,71.5 L73,55.1 C73.3,54.9 73.6,54.6 73.6,54.2 C73.6,53.8 73.4,53.5 73,53.3 L43.9,38.8 L43.9,40.7 C46,41.5 47.7,42.6 48.6,43.9 L53,49.4 L53,49.4 L53.3,49.7 C53.3,49.8 53.4,49.8 53.4,49.9 C54.1,51 54.5,52.1 54.5,53.2 C54.5,58.4 46.8,62.4 37,62.4 C27.2,62.4 19.5,58.3 19.5,53.2 C19.5,52.1 19.9,51 20.6,49.9 C20.6,49.8 20.7,49.8 20.7,49.7 L25.4,43.8 L25.4,43.8 C26.3,42.5 28,41.4 30.1,40.6 L30.1,38.7 L1.1,53.3 C0.7,53.5 0.5,53.8 0.5,54.2 Z" id="Shape"></path>
            <path d="M27.1,45.1 L27,45.2 L22.5,50.9 C22.5,50.9 22.5,51 22.4,51 C21.8,51.8 21.6,52.5 21.6,53.3 C21.6,57.2 28.7,60.5 37.1,60.5 C45.5,60.5 52.6,57.2 52.6,53.3 C52.6,52.6 52.3,51.8 51.8,51 L51.7,50.9 L51.5,50.7 L51.5,50.7 L47,45.1 C46.4,44.2 45.3,43.4 43.9,42.8 L43.9,44.5 C43.9,46.6 40.9,48.2 37,48.2 C33.1,48.2 30.1,46.6 30.1,44.5 L30.1,42.8 C28.7,43.5 27.7,44.2 27.1,45.1 Z" id="Shape"></path>
            <path d="M41.9,44.6 L41.9,26.5 C40.4,27.1 38.7,27.4 37,27.4 C35.3,27.4 33.7,27.1 32.1,26.5 L32.1,44.6 C32.1,45.2 33.9,46.3 37,46.3 C40,46.3 41.9,45.2 41.9,44.6 Z" id="Shape"></path>
            <path d="M49.3,13 C49.3,6.2 43.8,0.7 37,0.7 C30.2,0.7 24.7,6.3 24.7,13 C24.7,19.7 30.2,25.4 37,25.4 C43.8,25.4 49.3,19.8 49.3,13 Z M32.6,12.2 C30.5,12.2 28.9,10.5 28.9,8.5 C28.9,6.5 30.6,4.8 32.6,4.8 C34.6,4.8 36.3,6.5 36.3,8.5 C36.3,10.5 34.7,12.2 32.6,12.2 Z" id="Shape"></path>
        </g>
        <polyline id="Line" stroke="#F15151" stroke-width="4" stroke-linecap="square" points="124.451652 183.773521 130.5 176.968472 145.140877 193.353561 159.733419 176 170.766373 193.805189 180.018206 187.352195"></polyline>
        <path d="M116.5,186 L123,186" id="Line" stroke="#000000" stroke-width="4" stroke-linecap="square"></path>
        <path d="M181.5,186 L197,186" id="Line" stroke="#000000" stroke-width="4" stroke-linecap="square"></path>
        <path d="M197,185 L197,144" id="Line" stroke="#000000" stroke-width="4" stroke-linecap="square"></path>
        <g id="noun_joystick_719276" transform="translate(430.000000, 123.000000)" fill-rule="nonzero" fill="#000000">
            <path d="M0.5,67.2 C0.5,67.6 0.7,67.9 1.1,68.1 L33.9,84.5 C35.9,85.5 38.2,85.5 40.2,84.5 L73,68.1 C73.3,67.9 73.6,67.6 73.6,67.2 L73.6,57.1 L41,73.3 C39.7,73.9 38.4,74.2 37,74.2 C35.6,74.2 34.2,73.9 33,73.3 L0.5,57.1 L0.5,67.2 Z" id="Shape"></path>
            <path d="M0.5,54.2 C0.5,54.6 0.7,54.9 1.1,55.1 L33.9,71.5 C35.9,72.5 38.2,72.5 40.2,71.5 L73,55.1 C73.3,54.9 73.6,54.6 73.6,54.2 C73.6,53.8 73.4,53.5 73,53.3 L43.9,38.8 L43.9,40.7 C46,41.5 47.7,42.6 48.6,43.9 L53,49.4 L53,49.4 L53.3,49.7 C53.3,49.8 53.4,49.8 53.4,49.9 C54.1,51 54.5,52.1 54.5,53.2 C54.5,58.4 46.8,62.4 37,62.4 C27.2,62.4 19.5,58.3 19.5,53.2 C19.5,52.1 19.9,51 20.6,49.9 C20.6,49.8 20.7,49.8 20.7,49.7 L25.4,43.8 L25.4,43.8 C26.3,42.5 28,41.4 30.1,40.6 L30.1,38.7 L1.1,53.3 C0.7,53.5 0.5,53.8 0.5,54.2 Z" id="Shape"></path>
            <path d="M27.1,45.1 L27,45.2 L22.5,50.9 C22.5,50.9 22.5,51 22.4,51 C21.8,51.8 21.6,52.5 21.6,53.3 C21.6,57.2 28.7,60.5 37.1,60.5 C45.5,60.5 52.6,57.2 52.6,53.3 C52.6,52.6 52.3,51.8 51.8,51 L51.7,50.9 L51.5,50.7 L51.5,50.7 L47,45.1 C46.4,44.2 45.3,43.4 43.9,42.8 L43.9,44.5 C43.9,46.6 40.9,48.2 37,48.2 C33.1,48.2 30.1,46.6 30.1,44.5 L30.1,42.8 C28.7,43.5 27.7,44.2 27.1,45.1 Z" id="Shape"></path>
            <path d="M41.9,44.6 L41.9,26.5 C40.4,27.1 38.7,27.4 37,27.4 C35.3,27.4 33.7,27.1 32.1,26.5 L32.1,44.6 C32.1,45.2 33.9,46.3 37,46.3 C40,46.3 41.9,45.2 41.9,44.6 Z" id="Shape"></path>
            <path d="M49.3,13 C49.3,6.2 43.8,0.7 37,0.7 C30.2,0.7 24.7,6.3 24.7,13 C24.7,19.7 30.2,25.4 37,25.4 C43.8,25.4 49.3,19.8 49.3,13 Z M32.6,12.2 C30.5,12.2 28.9,10.5 28.9,8.5 C28.9,6.5 30.6,4.8 32.6,4.8 C34.6,4.8 36.3,6.5 36.3,8.5 C36.3,10.5 34.7,12.2 32.6,12.2 Z" id="Shape"></path>
        </g>
        <path d="M504.5,186 L577.687658,186" id="Line" stroke="#000000" stroke-width="4" stroke-linecap="square"></path>
        <path d="M571.5,186 L581,186" id="Line" stroke="#000000" stroke-width="4" stroke-linecap="square"></path>
        <path d="M585,186 L585,144" id="Line" stroke="#000000" stroke-width="4" stroke-linecap="square"></path>
        <path d="M381.5,18.5 L381.5,215.5" id="Line" stroke="#000000" stroke-width="3" stroke-linecap="square"></path>
        <path d="M780.5,18.5 L780.5,215.5" id="Line" stroke="#000000" stroke-width="3" stroke-linecap="square"></path>
        <text id="(a)" font-family="Palatino-BoldItalic, Palatino" font-size="20" font-style="italic" font-weight="bold" fill="#000000">
            <tspan x="342.27832" y="203">(a)</tspan>
        </text>
        <text id="(b)" font-family="Palatino-BoldItalic, Palatino" font-size="20" font-style="italic" font-weight="bold" fill="#000000">
            <tspan x="730.46875" y="210">(b)</tspan>
        </text>
        <text id="(c)" font-family="Palatino-BoldItalic, Palatino" font-size="20" font-style="italic" font-weight="bold" fill="#000000">
            <tspan x="969.401367" y="210">(c)</tspan>
        </text>
        <g id="Group" transform="translate(806.000000, 25.000000)">
            <text id="s" font-family="Palatino-BoldItalic, Palatino" font-size="24" font-style="italic" font-weight="bold" fill="#000000">
                <tspan x="22.1738281" y="33">s</tspan>
            </text>
            <circle id="Oval" stroke="#000000" stroke-width="3" cx="27" cy="27" r="27"></circle>
        </g>
        <g id="Group" transform="translate(920.000000, 25.000000)">
            <text id="s" font-family="Palatino-BoldItalic, Palatino" font-size="24" font-style="italic" font-weight="bold" fill="#000000">
                <tspan x="22.1738281" y="33">s</tspan>
            </text>
            <circle id="Oval" stroke="#000000" stroke-width="3" cx="27" cy="27" r="27"></circle>
        </g>
        <g id="Group" transform="translate(920.000000, 96.000000)">
            <text id="a" font-family="Palatino-BoldItalic, Palatino" font-size="24" font-style="italic" font-weight="bold" fill="#000000">
                <tspan x="20.8261719" y="33">a</tspan>
            </text>
            <circle id="Oval" stroke="#000000" stroke-width="3" cx="27" cy="27" r="27"></circle>
        </g>
        <path d="M860.5,115.5 L914.5,72.5" id="Line" stroke="#F15151" stroke-width="3" stroke-linecap="square"></path>
        <g id="Group" transform="translate(806.000000, 96.000000)">
            <text id="a" font-family="Palatino-BoldItalic, Palatino" font-size="24" font-style="italic" font-weight="bold" fill="#000000">
                <tspan x="20.8261719" y="33">a</tspan>
            </text>
            <circle id="Oval" stroke="#000000" stroke-width="3" cx="27" cy="27" r="27"></circle>
        </g>
        <path d="M860.5,50.5 L913.5,50.5" id="Line" stroke="#000000" stroke-width="3" stroke-linecap="square"></path>
        <path d="M904.5,165.5 L919.5,152.5" id="Line" stroke="#F15151" stroke-width="3" stroke-linecap="square"></path>
        <path d="M867.5,166.5 L857.5,155.5" id="Line" stroke="#F15151" stroke-width="3" stroke-linecap="square"></path>
        <path d="M833.5,81.5 L833.5,95.5" id="Line" stroke="#000000" stroke-width="3" stroke-linecap="square"></path>
        <path d="M947.5,79.5 L947.5,93.5" id="Line" stroke="#000000" stroke-width="3" stroke-linecap="square"></path>
        <polygon id="Triangle" fill="#070707" transform="translate(913.000000, 49.000000) rotate(90.000000) translate(-913.000000, -49.000000) " points="913 42 922 56 904 56"></polygon>
        <polygon id="Triangle" fill="#F15151" transform="translate(918.313708, 69.313708) rotate(45.000000) translate(-918.313708, -69.313708) " points="918.313708 62.3137085 927.313708 76.3137085 909.313708 76.3137085"></polygon>
        <polygon id="Triangle" fill="#070707" transform="translate(834.000000, 90.000000) rotate(180.000000) translate(-834.000000, -90.000000) " points="834 83 843 97 825 97"></polygon>
        <polygon id="Triangle" fill="#F15151" transform="translate(853.313708, 151.313708) rotate(315.000000) translate(-853.313708, -151.313708) " points="853.313708 144.313708 862.313708 158.313708 844.313708 158.313708"></polygon>
        <polygon id="Triangle" fill="#F15151" transform="translate(922.313708, 148.313708) scale(-1, 1) rotate(315.000000) translate(-922.313708, -148.313708) " points="922.313708 141.313708 931.313708 155.313708 913.313708 155.313708"></polygon>
        <polygon id="Triangle" fill="#070707" transform="translate(947.000000, 90.000000) rotate(180.000000) translate(-947.000000, -90.000000) " points="947 83 956 97 938 97"></polygon>
        <text id="u" font-family="Palatino-BoldItalic, Palatino" font-size="24" font-style="italic" font-weight="bold" fill="#F15151">
            <tspan x="880.826172" y="192">u</tspan>
        </text>
        <circle id="Oval" stroke="#F15151" stroke-width="3" stroke-dasharray="10" cx="887" cy="186" r="27"></circle>
        <rect id="Rectangle" fill="#F15151" x="431" y="42" width="74" height="20"></rect>
        <g id="noun_Computer_1296003" transform="translate(180.000000, 20.000000)" fill-rule="nonzero" fill="#000000">
            <path d="M10.3409091,0.0675882432 C4.6478039,0.0675882432 -4.13513518e-07,4.71403284 -4.13513518e-07,10.4054261 L-4.13513518e-07,113.783825 C-4.13513518e-07,119.475218 4.6478039,124.121663 10.3409091,124.121663 L74.4545455,124.121663 L74.4545455,144.797339 L66.1818182,144.797339 C65.0396027,144.797339 64.1136364,145.722989 64.1136364,146.864906 C64.1136364,148.006824 65.0396027,148.932474 66.1818182,148.932474 L115.818182,148.932474 C116.960397,148.932474 117.886364,148.006824 117.886364,146.864906 C117.886364,145.722989 116.960397,144.797339 115.818182,144.797339 L107.545455,144.797339 L107.545455,124.121663 L171.659091,124.121663 C177.352196,124.121663 182,119.475218 182,113.783825 L182,10.4054468 C182,4.71405351 177.352196,0.0676089189 171.659091,0.0676089189 L10.3409091,0.0675882432 Z M10.3409091,4.20272338 L171.659091,4.20272338 C175.132209,4.20272338 177.831042,6.93350459 177.863636,10.4054261 L177.863636,95.175717 L4.13636322,95.175717 L4.13636322,10.4054468 C4.13636322,6.93338054 6.86779027,4.20274405 10.3409091,4.20274405 L10.3409091,4.20272338 Z M152.011364,10.4054261 C151.482054,10.4054261 150.993322,10.6478484 150.589489,11.0515409 C149.781822,11.8589674 149.781822,13.1516727 150.589489,13.9590578 L168.104403,31.5333822 C168.91207,32.3408086 170.269769,32.3408086 171.077415,31.5333822 C171.885143,30.7260177 171.88506,29.3687009 171.077415,28.5612538 L153.497869,11.0515409 C153.094057,10.6478691 152.540673,10.4054261 152.011364,10.4054261 Z M143.286222,16.2850714 C142.756912,16.2850507 142.203549,16.4628822 141.799716,16.8665747 C140.99205,17.6740219 140.992112,19.0313386 141.799716,19.8387031 L162.287642,40.2558708 C163.095329,41.0634627 164.388336,41.0632559 165.196023,40.2558708 C166.003689,39.4484857 166.003648,38.1558424 165.196023,37.3484573 L144.708097,16.8665747 C144.304263,16.4628822 143.815531,16.285092 143.286222,16.2850714 Z M4.13636322,99.3108522 L177.863636,99.3108522 L177.863636,113.783825 C177.863636,117.255891 175.132209,119.986528 171.659091,119.986528 L10.3409091,119.986528 C6.86779027,119.986528 4.13636322,117.255891 4.13636322,113.783825 L4.13636322,99.3108522 Z M91,105.513555 C88.7155484,105.513555 86.8636364,107.364855 86.8636364,109.64869 C86.8636364,111.932525 88.7155484,113.783825 91,113.783825 C93.2844516,113.783825 95.1363636,111.932525 95.1363636,109.64869 C95.1363636,107.364855 93.2844516,105.513555 91,105.513555 Z M78.5909091,124.121663 L103.409091,124.121663 L103.409091,144.797339 L78.5909091,144.797339 L78.5909091,124.121663 Z" id="Shape"></path>
        </g>
        <g id="noun_Computer_1296003" transform="translate(561.000000, 18.000000)" fill-rule="nonzero" fill="#000000">
            <path d="M10.3409091,0.0675882432 C4.6478039,0.0675882432 -4.13513518e-07,4.71403284 -4.13513518e-07,10.4054261 L-4.13513518e-07,113.783825 C-4.13513518e-07,119.475218 4.6478039,124.121663 10.3409091,124.121663 L74.4545455,124.121663 L74.4545455,144.797339 L66.1818182,144.797339 C65.0396027,144.797339 64.1136364,145.722989 64.1136364,146.864906 C64.1136364,148.006824 65.0396027,148.932474 66.1818182,148.932474 L115.818182,148.932474 C116.960397,148.932474 117.886364,148.006824 117.886364,146.864906 C117.886364,145.722989 116.960397,144.797339 115.818182,144.797339 L107.545455,144.797339 L107.545455,124.121663 L171.659091,124.121663 C177.352196,124.121663 182,119.475218 182,113.783825 L182,10.4054468 C182,4.71405351 177.352196,0.0676089189 171.659091,0.0676089189 L10.3409091,0.0675882432 Z M10.3409091,4.20272338 L171.659091,4.20272338 C175.132209,4.20272338 177.831042,6.93350459 177.863636,10.4054261 L177.863636,95.175717 L4.13636322,95.175717 L4.13636322,10.4054468 C4.13636322,6.93338054 6.86779027,4.20274405 10.3409091,4.20274405 L10.3409091,4.20272338 Z M152.011364,10.4054261 C151.482054,10.4054261 150.993322,10.6478484 150.589489,11.0515409 C149.781822,11.8589674 149.781822,13.1516727 150.589489,13.9590578 L168.104403,31.5333822 C168.91207,32.3408086 170.269769,32.3408086 171.077415,31.5333822 C171.885143,30.7260177 171.88506,29.3687009 171.077415,28.5612538 L153.497869,11.0515409 C153.094057,10.6478691 152.540673,10.4054261 152.011364,10.4054261 Z M143.286222,16.2850714 C142.756912,16.2850507 142.203549,16.4628822 141.799716,16.8665747 C140.99205,17.6740219 140.992112,19.0313386 141.799716,19.8387031 L162.287642,40.2558708 C163.095329,41.0634627 164.388336,41.0632559 165.196023,40.2558708 C166.003689,39.4484857 166.003648,38.1558424 165.196023,37.3484573 L144.708097,16.8665747 C144.304263,16.4628822 143.815531,16.285092 143.286222,16.2850714 Z M4.13636322,99.3108522 L177.863636,99.3108522 L177.863636,113.783825 C177.863636,117.255891 175.132209,119.986528 171.659091,119.986528 L10.3409091,119.986528 C6.86779027,119.986528 4.13636322,117.255891 4.13636322,113.783825 L4.13636322,99.3108522 Z M91,105.513555 C88.7155484,105.513555 86.8636364,107.364855 86.8636364,109.64869 C86.8636364,111.932525 88.7155484,113.783825 91,113.783825 C93.2844516,113.783825 95.1363636,111.932525 95.1363636,109.64869 C95.1363636,107.364855 93.2844516,105.513555 91,105.513555 Z M78.5909091,124.121663 L103.409091,124.121663 L103.409091,144.797339 L78.5909091,144.797339 L78.5909091,124.121663 Z" id="Shape"></path>
        </g>
    </g>
</svg>