<?xml version="1.0" encoding="UTF-8" standalone="no"?>
<svg
   xmlns:dc="http://purl.org/dc/elements/1.1/"
   xmlns:cc="http://creativecommons.org/ns#"
   xmlns:rdf="http://www.w3.org/1999/02/22-rdf-syntax-ns#"
   xmlns:svg="http://www.w3.org/2000/svg"
   xmlns="http://www.w3.org/2000/svg"
   viewBox="0 0 816 1056"
   height="1056"
   width="816"
   xml:space="preserve"
   id="svg2"
   version="1.1"><metadata
     id="metadata8"><rdf:RDF><cc:Work
         rdf:about=""><dc:format>image/svg+xml</dc:format><dc:type
           rdf:resource="http://purl.org/dc/dcmitype/StillImage" /></cc:Work></rdf:RDF></metadata><defs
     id="defs6"><clipPath
       id="clipPath20"
       clipPathUnits="userSpaceOnUse"><path
         id="path18"
         d="M 0,0 H 612 V 792 H 0 Z" /></clipPath></defs><g
     transform="matrix(1.3333333,0,0,-1.3333333,0,1056)"
     id="g10"><g
       id="g12" /><g
       id="g14"><g
         clip-path="url(#clipPath20)"
         id="g16"><g
           transform="translate(108,752.846)"
           id="g22"><path
             id="path24"
             style="fill:none;stroke:#000000;stroke-width:0.398;stroke-linecap:butt;stroke-linejoin:miter;stroke-miterlimit:10;stroke-dasharray:none;stroke-opacity:1"
             d="M 0,0 H 396" /></g><text
           id="text28"
           style="font-variant:normal;font-size:17.2154007px;font-family:'Nimbus Roman';-inkscape-font-specification:NimbusRomNo9L-Regu;writing-mode:lr-tb;fill:#000000;fill-opacity:1;fill-rule:nonzero;stroke:none"
           transform="matrix(1,0,0,-1,108.43,697.242)"><tspan
             id="tspan26"
             y="0"
             x="0">W</tspan></text>
<text
           id="text32"
           style="font-variant:normal;font-size:13.77229977px;font-family:'Nimbus Roman';-inkscape-font-specification:NimbusRomNo9L-Regu;writing-mode:lr-tb;fill:#000000;fill-opacity:1;fill-rule:nonzero;stroke:none"
           transform="matrix(1,0,0,-1,125.542,697.242)"><tspan
             id="tspan30"
             y="0"
             x="0 10.797483 20.052469">HAT</tspan></text>
<text
           id="text36"
           style="font-variant:normal;font-size:17.2154007px;font-family:'Nimbus Roman';-inkscape-font-specification:NimbusRomNo9L-Regu;writing-mode:lr-tb;fill:#000000;fill-opacity:1;fill-rule:nonzero;stroke:none"
           transform="matrix(1,0,0,-1,159.164,697.242)"><tspan
             id="tspan34"
             y="0"
             x="0">W</tspan></text>
<text
           id="text40"
           style="font-variant:normal;font-size:13.77229977px;font-family:'Nimbus Roman';-inkscape-font-specification:NimbusRomNo9L-Regu;writing-mode:lr-tb;fill:#000000;fill-opacity:1;fill-rule:nonzero;stroke:none"
           transform="matrix(1,0,0,-1,176.121,697.242)"><tspan
             id="tspan38"
             y="0"
             x="0 10.797483 21.581194 30.849953 45.944393 55.21315 65.996864">OULDTHE</tspan></text>
<text
           id="text44"
           style="font-variant:normal;font-size:17.2154007px;font-family:'Nimbus Roman';-inkscape-font-specification:NimbusRomNo9L-Regu;writing-mode:lr-tb;fill:#000000;fill-opacity:1;fill-rule:nonzero;stroke:none"
           transform="matrix(1,0,0,-1,255.689,697.242)"><tspan
             id="tspan42"
             y="0"
             x="0">E</tspan></text>
<text
           id="text48"
           style="font-variant:normal;font-size:13.77229977px;font-family:'Nimbus Roman';-inkscape-font-specification:NimbusRomNo9L-Regu;writing-mode:lr-tb;fill:#000000;fill-opacity:1;fill-rule:nonzero;stroke:none"
           transform="matrix(1,0,0,-1,267.069,697.242)"><tspan
             id="tspan46"
             y="0"
             x="0 10.797483 19.294992 28.563749 37.763645">XPERT</tspan></text>
<text
           id="text52"
           style="font-variant:normal;font-weight:normal;font-size:17.2154007px;font-family:CMMI12;-inkscape-font-specification:CMMI12;writing-mode:lr-tb;fill:#000000;fill-opacity:1;fill-rule:nonzero;stroke:none"
           transform="matrix(1,0,0,-1,317.974,697.242)"><tspan
             id="tspan50"
             y="0"
             x="0 8.7591953">do</tspan></text>
<text
           id="text56"
           style="font-variant:normal;font-weight:normal;font-size:17.2154007px;font-family:CMR17;-inkscape-font-specification:CMR17;writing-mode:lr-tb;fill:#000000;fill-opacity:1;fill-rule:nonzero;stroke:none"
           transform="matrix(1,0,0,-1,334.836,697.242)"><tspan
             id="tspan54"
             y="0"
             x="0">(</tspan></text>
<text
           id="text60"
           style="font-variant:normal;font-weight:normal;font-size:17.2154007px;font-family:CMSY10;-inkscape-font-specification:CMSY10;writing-mode:lr-tb;fill:#000000;fill-opacity:1;fill-rule:nonzero;stroke:none"
           transform="matrix(1,0,0,-1,340.933,697.242)"><tspan
             id="tspan58"
             y="0"
             x="0">·</tspan></text>
<text
           id="text64"
           style="font-variant:normal;font-weight:normal;font-size:17.2154007px;font-family:CMR17;-inkscape-font-specification:CMR17;writing-mode:lr-tb;fill:#000000;fill-opacity:1;fill-rule:nonzero;stroke:none"
           transform="matrix(1,0,0,-1,345.715,697.242)"><tspan
             id="tspan62"
             y="0"
             x="0">)</tspan></text>
<text
           id="text68"
           style="font-variant:normal;font-size:17.2154007px;font-family:'Nimbus Roman';-inkscape-font-specification:NimbusRomNo9L-Regu;writing-mode:lr-tb;fill:#000000;fill-opacity:1;fill-rule:nonzero;stroke:none"
           transform="matrix(1,0,0,-1,352.242,697.242)"><tspan
             id="tspan66"
             y="0"
             x="0 8.5044079">?:</tspan></text>
<text
           id="text72"
           style="font-variant:normal;font-size:17.2154007px;font-family:'Nimbus Roman';-inkscape-font-specification:NimbusRomNo9L-Regu;writing-mode:lr-tb;fill:#000000;fill-opacity:1;fill-rule:nonzero;stroke:none"
           transform="matrix(1,0,0,-1,108.43,677.317)"><tspan
             id="tspan70"
             y="0"
             x="0">C</tspan></text>
<text
           id="text76"
           style="font-variant:normal;font-size:13.77229977px;font-family:'Nimbus Roman';-inkscape-font-specification:NimbusRomNo9L-Regu;writing-mode:lr-tb;fill:#000000;fill-opacity:1;fill-rule:nonzero;stroke:none"
           transform="matrix(1,0,0,-1,120.774,677.317)"><tspan
             id="tspan74"
             y="0"
             x="0 10.040007 20.823717 29.334999 40.132481">AUSAL</tspan></text>
<text
           id="text80"
           style="font-variant:normal;font-size:17.2154007px;font-family:'Nimbus Roman';-inkscape-font-specification:NimbusRomNo9L-Regu;writing-mode:lr-tb;fill:#000000;fill-opacity:1;fill-rule:nonzero;stroke:none"
           transform="matrix(1,0,0,-1,174.468,677.317)"><tspan
             id="tspan78"
             y="0"
             x="0">I</tspan></text>
<text
           id="text84"
           style="font-variant:normal;font-size:13.77229977px;font-family:'Nimbus Roman';-inkscape-font-specification:NimbusRomNo9L-Regu;writing-mode:lr-tb;fill:#000000;fill-opacity:1;fill-rule:nonzero;stroke:none"
           transform="matrix(1,0,0,-1,181.061,677.317)"><tspan
             id="tspan82"
             y="0"
             x="0 13.097457 18.537516 26.52545 35.794209 45.049194 50.48925 61.286736">MITATION</tspan></text>
<text
           id="text88"
           style="font-variant:normal;font-size:17.2154007px;font-family:'Nimbus Roman';-inkscape-font-specification:NimbusRomNo9L-Regu;writing-mode:lr-tb;fill:#000000;fill-opacity:1;fill-rule:nonzero;stroke:none"
           transform="matrix(1,0,0,-1,257.445,677.317)"><tspan
             id="tspan86"
             y="0"
             x="0">L</tspan></text>
<text
           id="text92"
           style="font-variant:normal;font-size:13.77229977px;font-family:'Nimbus Roman';-inkscape-font-specification:NimbusRomNo9L-Regu;writing-mode:lr-tb;fill:#000000;fill-opacity:1;fill-rule:nonzero;stroke:none"
           transform="matrix(1,0,0,-1,268.824,677.317)"><tspan
             id="tspan90"
             y="0"
             x="0 9.2687578 20.052469 30.092476 40.889957 46.330017 57.113728">EARNING</tspan></text>
<text
           id="text96"
           style="font-variant:normal;font-size:9.96259975px;font-family:'Nimbus Roman';-inkscape-font-specification:NimbusRomNo9L-Medi;writing-mode:lr-tb;fill:#000000;fill-opacity:1;fill-rule:nonzero;stroke:none"
           transform="matrix(1,0,0,-1,113.978,646.218)"><tspan
             id="tspan94"
             y="0"
             x="0 7.7509027 12.732203 18.271408 23.810614 29.070868 34.610073 41.80307 46.78437 55.083214">GokulSwamy</tspan></text>
<text
           id="text100"
           style="font-variant:normal;font-size:6.97380018px;font-family:'Nimbus Roman';-inkscape-font-specification:NimbusRomNo9L-Medi;writing-mode:lr-tb;fill:#000000;fill-opacity:1;fill-rule:nonzero;stroke:none"
           transform="matrix(1,0,0,-1,174.042,649.833)"><tspan
             id="tspan98"
             y="0"
             x="0">*</tspan></text>
<text
           id="text104"
           style="font-variant:normal;font-size:9.96259975px;font-family:'Nimbus Roman';-inkscape-font-specification:NimbusRomNo9L-Medi;writing-mode:lr-tb;fill:#000000;fill-opacity:1;fill-rule:nonzero;stroke:none"
           transform="matrix(1,0,0,-1,178.027,646.218)"><tspan
             id="tspan102"
             y="0"
             x="0 4.9812999 10.520506 15.501805 21.041012 24.358557 27.12816 32.667366 37.648666 45.67852 52.871517 58.410725 63.392025 68.931229 74.470436 80.009644 85.548843 89.972244">,SanjibanChoudhury</tspan></text>
<text
           id="text108"
           style="font-variant:normal;font-size:6.97380018px;font-family:'Nimbus Roman';-inkscape-font-specification:NimbusRomNo9L-Medi;writing-mode:lr-tb;fill:#000000;fill-opacity:1;fill-rule:nonzero;stroke:none"
           transform="matrix(1,0,0,-1,275.471,649.833)"><tspan
             id="tspan106"
             y="0"
             x="0">†</tspan></text>
<text
           id="text112"
           style="font-variant:normal;font-size:9.96259975px;font-family:'Nimbus Roman';-inkscape-font-specification:NimbusRomNo9L-Medi;writing-mode:lr-tb;fill:#000000;fill-opacity:1;fill-rule:nonzero;stroke:none"
           transform="matrix(1,0,0,-1,279.456,646.218)"><tspan
             id="tspan110"
             y="0"
             x="0 4.9812999 9.7633476 14.744648 21.937645 27.476851 33.016056 37.260124 41.683517 51.367165 58.012218 62.993519 67.974823 73.514023 77.937416 80.707024">,J.AndrewBagnell</tspan></text>
<text
           id="text116"
           style="font-variant:normal;font-size:6.97380018px;font-family:'Nimbus Roman';-inkscape-font-specification:NimbusRomNo9L-Medi;writing-mode:lr-tb;fill:#000000;fill-opacity:1;fill-rule:nonzero;stroke:none"
           transform="matrix(1,0,0,-1,365.423,649.833)"><tspan
             id="tspan114"
             y="0"
             x="0 3.9820397">†*</tspan></text>
<text
           id="text120"
           style="font-variant:normal;font-size:9.96259975px;font-family:'Nimbus Roman';-inkscape-font-specification:NimbusRomNo9L-Medi;writing-mode:lr-tb;fill:#000000;fill-opacity:1;fill-rule:nonzero;stroke:none"
           transform="matrix(1,0,0,-1,373.393,646.218)"><tspan
             id="tspan118"
             y="0"
             x="0 4.9812999 11.626354 17.16556 19.935163 27.12816 31.551554 36.811806 42.351013 45.66856 49.942513 54.824188 59.247581 67.277435 76.741905">,ZhiweiStevenWu</tspan></text>
<text
           id="text124"
           style="font-variant:normal;font-size:6.97380018px;font-family:'Nimbus Roman';-inkscape-font-specification:NimbusRomNo9L-Medi;writing-mode:lr-tb;fill:#000000;fill-opacity:1;fill-rule:nonzero;stroke:none"
           transform="matrix(1,0,0,-1,455.674,649.833)"><tspan
             id="tspan122"
             y="0"
             x="0">*</tspan></text>
<text
           id="text128"
           style="font-variant:normal;font-size:6.97380018px;font-family:'Nimbus Roman';-inkscape-font-specification:NimbusRomNo9L-Regu;writing-mode:lr-tb;fill:#000000;fill-opacity:1;fill-rule:nonzero;stroke:none"
           transform="matrix(1,0,0,-1,113.978,638.174)"><tspan
             id="tspan126"
             y="0"
             x="0">*</tspan></text>
<text
           id="text132"
           style="font-variant:normal;font-size:9.96259975px;font-family:'Nimbus Roman';-inkscape-font-specification:NimbusRomNo9L-Regu;writing-mode:lr-tb;fill:#000000;fill-opacity:1;fill-rule:nonzero;stroke:none"
           transform="matrix(1,0,0,-1,120.453,634.558)"><tspan
             id="tspan130"
             y="0"
             x="0 6.6450543 11.068449 14.385994 19.367294 23.641251 28.622549 31.392153 38.306198 47.162949 51.586342 54.355946 57.125549 62.10685 69.578796 76.771797 81.753098 84.273636 89.105492 93.528893 96.846436 100.72189 103.49149 106.26109">CarnegieMellonUniversity</tspan></text>
<text
           id="text136"
           style="font-variant:normal;font-weight:normal;font-size:9.96259975px;font-family:CMSY10;-inkscape-font-specification:CMSY10;writing-mode:lr-tb;fill:#000000;fill-opacity:1;fill-rule:nonzero;stroke:none"
           transform="matrix(1,0,0,-1,234.186,634.558)"><tspan
             id="tspan134"
             y="0"
             x="0">{</tspan></text>
<text
           id="text140"
           style="font-variant:normal;font-size:9.96259975px;font-family:'Nimbus Mono PS';-inkscape-font-specification:NimbusMonL-Regu;writing-mode:lr-tb;fill:#000000;fill-opacity:1;fill-rule:nonzero;stroke:none"
           transform="matrix(1,0,0,-1,239.167,634.558)"><tspan
             id="tspan138"
             y="0"
             x="0 5.97756 11.95512 17.93268 23.91024 29.8878 35.86536 47.82048 53.798038 59.7756 65.753159 71.730721 77.708282 83.685837 89.663399 95.640961 107.59608 113.57364 119.5512 125.52876 131.50632 137.48389 143.46144">gswamy,dbagnell,zhiweiw</tspan></text>
<text
           id="text144"
           style="font-variant:normal;font-weight:normal;font-size:9.96259975px;font-family:CMSY10;-inkscape-font-specification:CMSY10;writing-mode:lr-tb;fill:#000000;fill-opacity:1;fill-rule:nonzero;stroke:none"
           transform="matrix(1,0,0,-1,388.607,634.558)"><tspan
             id="tspan142"
             y="0"
             x="0">}</tspan></text>
<text
           id="text148"
           style="font-variant:normal;font-size:9.96259975px;font-family:'Nimbus Mono PS';-inkscape-font-specification:NimbusMonL-Regu;writing-mode:lr-tb;fill:#000000;fill-opacity:1;fill-rule:nonzero;stroke:none"
           transform="matrix(1,0,0,-1,393.588,634.558)"><tspan
             id="tspan146"
             y="0"
             x="0 5.97756 11.95512 17.93268 23.91024 29.8878 35.86536 41.842918 47.82048 53.798038 59.7756">@cs.cmu.edu</tspan></text>
<text
           id="text152"
           style="font-variant:normal;font-size:6.97380018px;font-family:'Nimbus Roman';-inkscape-font-specification:NimbusRomNo9L-Regu;writing-mode:lr-tb;fill:#000000;fill-opacity:1;fill-rule:nonzero;stroke:none"
           transform="matrix(1,0,0,-1,113.978,626.598)"><tspan
             id="tspan150"
             y="0"
             x="0">†</tspan></text>
<text
           id="text156"
           style="font-variant:normal;font-size:9.96259975px;font-family:'Nimbus Roman';-inkscape-font-specification:NimbusRomNo9L-Regu;writing-mode:lr-tb;fill:#000000;fill-opacity:1;fill-rule:nonzero;stroke:none"
           transform="matrix(1,0,0,-1,120.453,622.983)"><tspan
             id="tspan154"
             y="0"
             x="0 7.192997 12.174297 15.491843 20.473143 23.790689 30.704733 34.022278 39.003578 43.984879 48.816738 53.548977 57.97237 60.741974 63.511574 68.492874">AuroraInnovation</tspan></text>
<text
           id="text160"
           style="font-variant:normal;font-weight:normal;font-size:9.96259975px;font-family:CMSY10;-inkscape-font-specification:CMSY10;writing-mode:lr-tb;fill:#000000;fill-opacity:1;fill-rule:nonzero;stroke:none"
           transform="matrix(1,0,0,-1,196.418,622.983)"><tspan
             id="tspan158"
             y="0"
             x="0">{</tspan></text>
<text
           id="text164"
           style="font-variant:normal;font-size:9.96259975px;font-family:'Nimbus Mono PS';-inkscape-font-specification:NimbusMonL-Regu;writing-mode:lr-tb;fill:#000000;fill-opacity:1;fill-rule:nonzero;stroke:none"
           transform="matrix(1,0,0,-1,201.399,622.983)"><tspan
             id="tspan162"
             y="0"
             x="0 5.97756 11.95512 17.93268 23.91024 29.8878 35.86536 41.842918 47.82048 53.798038">schoudhury</tspan></text>
<text
           id="text168"
           style="font-variant:normal;font-weight:normal;font-size:9.96259975px;font-family:CMSY10;-inkscape-font-specification:CMSY10;writing-mode:lr-tb;fill:#000000;fill-opacity:1;fill-rule:nonzero;stroke:none"
           transform="matrix(1,0,0,-1,261.175,622.983)"><tspan
             id="tspan166"
             y="0"
             x="0">}</tspan></text>
<text
           id="text172"
           style="font-variant:normal;font-size:9.96259975px;font-family:'Nimbus Mono PS';-inkscape-font-specification:NimbusMonL-Regu;writing-mode:lr-tb;fill:#000000;fill-opacity:1;fill-rule:nonzero;stroke:none"
           transform="matrix(1,0,0,-1,266.157,622.983)"><tspan
             id="tspan170"
             y="0"
             x="0 5.97756 11.95512 17.93268 23.91024 29.8878 35.86536 41.842918 47.82048 53.798038 59.7756 65.753159">@aurora.tech</tspan></text>
<text
           id="text176"
           style="font-variant:normal;font-size:11.9552002px;font-family:'Nimbus Roman';-inkscape-font-specification:NimbusRomNo9L-Regu;writing-mode:lr-tb;fill:#000000;fill-opacity:1;fill-rule:nonzero;stroke:none"
           transform="matrix(1,0,0,-1,278.288,581.736)"><tspan
             id="tspan174"
             y="0"
             x="0">A</tspan></text>
<text
           id="text180"
           style="font-variant:normal;font-size:9.56410027px;font-family:'Nimbus Roman';-inkscape-font-specification:NimbusRomNo9L-Regu;writing-mode:lr-tb;fill:#000000;fill-opacity:1;fill-rule:nonzero;stroke:none"
           transform="matrix(1,0,0,-1,287.518,581.736)"><tspan
             id="tspan178"
             y="0"
             x="0 6.972229 12.873279 19.309917 26.272583 33.388271 40.3605">BSTRACT</tspan></text>
<text
           id="text184"
           style="font-variant:normal;font-size:9.96259975px;font-family:'Nimbus Roman';-inkscape-font-specification:NimbusRomNo9L-Regu;writing-mode:lr-tb;fill:#000000;fill-opacity:1;fill-rule:nonzero;stroke:none"
           transform="matrix(1,0,0,-1,143.866,557.218)"><tspan
             id="tspan182"
             y="0"
             x="0 8.607686 15.571544 20.552843 24.727173 29.559034 33.98243 36.752033 41.73333 49.265057 53.68845 56.458054 61.439354 66.420654 69.738197 72.507805 75.277405 80.258705 88.009605 94.425522 97.743065 102.72437 108.59234 111.36195 119.11285 121.88245 124.65205 129.07544 131.84505 134.61465 139.59595 147.11772 149.88731 154.31071 158.7341 162.05165 167.03296 169.80255 174.78386 182.30562 185.62317 188.9407 193.92201 204.22334 209.20464 214.18594 216.95554 219.72514 223.9991 231.52086 236.50217 240.92555 243.69516 250.66898 253.43858 258.41989 262.84326 268.15335 275.2467 279.6701 286.09598 290.51938 295.50067 298.81824 302.13577 307.11707 312.09836 314.86798 319.29138">Wedevelopalgorithmsforimitationlearningfrompolicydatathatwascorrupted</tspan></text>
<text
           id="text188"
           style="font-variant:normal;font-size:9.96259975px;font-family:'Nimbus Roman';-inkscape-font-specification:NimbusRomNo9L-Regu;writing-mode:lr-tb;fill:#000000;fill-opacity:1;fill-rule:nonzero;stroke:none"
           transform="matrix(1,0,0,-1,143.866,546.259)"><tspan
             id="tspan186"
             y="0"
             x="0 4.9812999 13.011155 17.992456 22.973755 27.955055 32.936356 36.811806 41.235203 44.552746 49.384609 53.808002 61.84782 66.271217 71.252518 76.233818 79.551361 84.532661 89.513962 94.495262 99.476562 103.89996 107.2175 111.09295 118.35569 123.89489 128.87619 133.8575 137.17503 141.59843 146.02184 152.9558 157.9371 164.30319 168.17865 173.15996 177.58334 185.6132 190.03659 195.0179 199.99919 203.31674 208.29803 213.27934 218.26064 223.24194 226.01155 230.99284 239.03267 241.80226 246.78357 251.20695 253.97656 258.95786 263.93915">byunobservedconfounders.Sourcesofsuchconfoundinginclude</tspan></text>
<text
           id="text192"
           style="font-variant:normal;font-size:9.96259975px;font-family:'Nimbus Roman';-inkscape-font-specification:NimbusRomNo9L-ReguItal;writing-mode:lr-tb;fill:#000000;fill-opacity:1;fill-rule:nonzero;stroke:none"
           transform="matrix(1,0,0,-1,415.279,546.259)"><tspan
             id="tspan190"
             y="0"
             x="0 3.3175459 8.2988462">(a)</tspan></text>
<text
           id="text196"
           style="font-variant:normal;font-size:9.96259975px;font-family:'Nimbus Roman';-inkscape-font-specification:NimbusRomNo9L-Regu;writing-mode:lr-tb;fill:#000000;fill-opacity:1;fill-rule:nonzero;stroke:none"
           transform="matrix(1,0,0,-1,429.948,546.259)"><tspan
             id="tspan194"
             y="0"
             x="0 4.9812999 9.4046946 12.72224 16.597692 19.367294 23.242746 26.012348 30.435743 35.417042">persistent</tspan></text>
<text
           id="text200"
           style="font-variant:normal;font-size:9.96259975px;font-family:'Nimbus Roman';-inkscape-font-specification:NimbusRomNo9L-Regu;writing-mode:lr-tb;fill:#000000;fill-opacity:1;fill-rule:nonzero;stroke:none"
           transform="matrix(1,0,0,-1,143.866,535.3)"><tspan
             id="tspan198"
             y="0"
             x="0 4.9812999 9.4046946 12.72224 15.491843 20.473143 23.790689 28.771988 33.195385 35.964985 38.734589 43.715889 48.697189 55.312355 58.081959 65.802971 70.226364 74.649765 77.419365 80.188965 85.170265 90.151566 96.766731 101.74803">perturbationstoactionsor</tspan></text>
<text
           id="text204"
           style="font-variant:normal;font-size:9.96259975px;font-family:'Nimbus Roman';-inkscape-font-specification:NimbusRomNo9L-ReguItal;writing-mode:lr-tb;fill:#000000;fill-opacity:1;fill-rule:nonzero;stroke:none"
           transform="matrix(1,0,0,-1,251.67,535.3)"><tspan
             id="tspan202"
             y="0"
             x="0 3.3175459 8.2988462">(b)</tspan></text>
<text
           id="text208"
           style="font-variant:normal;font-size:9.96259975px;font-family:'Nimbus Roman';-inkscape-font-specification:NimbusRomNo9L-Regu;writing-mode:lr-tb;fill:#000000;fill-opacity:1;fill-rule:nonzero;stroke:none"
           transform="matrix(1,0,0,-1,266.026,535.3)"><tspan
             id="tspan206"
             y="0"
             x="0 2.7696028 7.7509027 14.914012 19.187967 24.169268 29.150568 33.573963 36.891506 42.400826 45.718372 50.141766 54.017216 58.998516 63.979816 68.961121 73.942421 76.712021 81.693321 89.414337 92.183937 99.904953 107.06806 112.04936 116.47276 119.79031 125.29962 130.28091 136.33818 139.10779 144.08908 151.2522 155.12764 157.89725 162.32065 165.09024 172.25336 175.02295 180.00426 184.42766 189.93697 192.70657 197.68787">theexpertrespondingtoapartofthestatethatthe</tspan></text>
<text
           id="text212"
           style="font-variant:normal;font-size:9.96259975px;font-family:'Nimbus Roman';-inkscape-font-specification:NimbusRomNo9L-Regu;writing-mode:lr-tb;fill:#000000;fill-opacity:1;fill-rule:nonzero;stroke:none"
           transform="matrix(1,0,0,-1,143.866,524.341)"><tspan
             id="tspan210"
             y="0"
             x="0 2.7696028 7.192997 11.616391 14.933937 19.915237 24.338633 30.286304 35.267605 40.248905 44.672298 51.177876 56.159176 61.140476 66.540207 71.521507 75.745651 80.577507 87.631027 92.05442 96.477821 100.90121 105.32461 109.20006 115.70564 118.47524 123.45654 129.45403 138.85872 143.84001 148.26341 155.87483 162.92836 167.35176 172.33305 177.31436 180.6319 185.6132 190.5945 195.57581 200.5571 204.9805 210.92816 215.35156 218.42004 221.73759 226.16098 230.58438 233.35397 239.85956 247.61046 252.59177 255.36136 258.13095 260.90057 265.88187 268.65146 275.70499 278.47461 281.2442 288.99509 293.41849 297.29395 300.06354 304.48694 309.46823 315.97382 320.95511">learnerdoesnothaveaccessto.Whenaconfounderaffectsmultipletimestepsof</tspan></text>
<text
           id="text216"
           style="font-variant:normal;font-size:9.96259975px;font-family:'Nimbus Roman';-inkscape-font-specification:NimbusRomNo9L-Regu;writing-mode:lr-tb;fill:#000000;fill-opacity:1;fill-rule:nonzero;stroke:none"
           transform="matrix(1,0,0,-1,143.866,513.382)"><tspan
             id="tspan214"
             y="0"
             x="0 3.3175459 7.7409401 12.164334 17.145634 20.463181 25.444481 29.867874 37.539078 42.520378 46.943771 49.713375 54.136768 59.367134 62.136738 67.586281 72.009674 76.433067 84.104271 91.855171 96.278564 101.25986 104.02947 107.34702 111.77041 115.64586 121.10536 125.52876 132.09412 135.96956 140.95087 145.93216 149.24971 152.01932 157.00061 161.98192 168.53731 172.96069 177.942 181.25955 184.57709 189.00049 191.77008 196.19348 198.96309 201.73268 206.71399 211.69528 218.26064 223.24194 227.66533 230.43494 237.62793 242.05133 246.47473 254.14592 258.02136 260.79099 265.21439 267.98398 272.40738 278.97272 283.39612 288.37741 296.04861 300.47202 304.89542 307.66501 310.4346 315.41592 320.39722">recordeddata,itcanmanifestasspuriouscorrelationsbetweenstatesandactions</tspan></text>
<text
           id="text220"
           style="font-variant:normal;font-size:9.96259975px;font-family:'Nimbus Roman';-inkscape-font-specification:NimbusRomNo9L-Regu;writing-mode:lr-tb;fill:#000000;fill-opacity:1;fill-rule:nonzero;stroke:none"
           transform="matrix(1,0,0,-1,143.866,502.423)"><tspan
             id="tspan218"
             y="0"
             x="0 2.7696028 7.7509027 12.174297 17.663691 24.796911 27.566515 31.989908 36.413303 39.73085 44.712151 49.135544 55.172878 62.923782 65.693382 70.674683 75.655983 81.135414 83.905014 88.328415 91.098015 95.521408 103.2225 108.2038 115.90489 118.67449 123.65579 128.91605 131.68565 136.10904 140.53244 145.51373 148.28334 153.26463 160.96573 163.73534 171.42645 176.40776 181.38905 186.37036 192.4077 197.38899 202.3703 205.13989 207.9095 212.18346 219.87459 224.85588 229.27928 232.59682 235.91437 240.89566 244.21321 251.96411 256.38751 261.3688 265.79221 270.21561 276.47211 281.76227 289.46335 294.44464 297.76218 302.18558 306.60898 314.31006 319.29138">thatalearnermightlatchonto,leadingtopoorpolicyperformance.Tobreakup</tspan></text>
<text
           id="text224"
           style="font-variant:normal;font-size:9.96259975px;font-family:'Nimbus Roman';-inkscape-font-specification:NimbusRomNo9L-Regu;writing-mode:lr-tb;fill:#000000;fill-opacity:1;fill-rule:nonzero;stroke:none"
           transform="matrix(1,0,0,-1,143.866,491.465)"><tspan
             id="tspan222"
             y="0"
             x="0 2.7696028 7.7509027 12.174297 16.049749 22.505514 26.380964 31.362265 36.343563 39.66111 42.430714 47.412014 52.393314 58.301136 62.724529 67.705826 71.023376 74.340919 78.764313 81.53392 85.957314 88.726913 91.496521 96.477821 101.45912 105.33457 109.95721 117.15022 123.60598 128.02937 133.01067 137.99197 140.76158 147.77525 155.52615 160.50745 165.48875 169.91214 173.22969 180.24336 184.9756 189.39899 192.71654 195.48613 199.90953 204.89084 207.66043 213.56825 218.54956 223.89948 226.66908 231.65038 238.1161 242.53949 245.3091 249.7325 253.60794 257.47342 260.24304 264.66644 269.08981">thesespuriouscorrelations,weapplymodernvariantsoftheclassical</tspan></text>
<text
           id="text228"
           style="font-variant:normal;font-size:9.96259975px;font-family:'Nimbus Roman';-inkscape-font-specification:NimbusRomNo9L-ReguItal;writing-mode:lr-tb;fill:#000000;fill-opacity:1;fill-rule:nonzero;stroke:none"
           transform="matrix(1,0,0,-1,417.764,491.465)"><tspan
             id="tspan226"
             y="0"
             x="0 2.7696028 7.7509027 11.626354 14.395957 18.271408 23.252708 30.445705 34.869099 39.850399 42.620003 47.601303">instrumental</tspan></text>
<text
           id="text232"
           style="font-variant:normal;font-size:9.96259975px;font-family:'Nimbus Roman';-inkscape-font-specification:NimbusRomNo9L-ReguItal;writing-mode:lr-tb;fill:#000000;fill-opacity:1;fill-rule:nonzero;stroke:none"
           transform="matrix(1,0,0,-1,143.866,480.506)"><tspan
             id="tspan230"
             y="0"
             x="0 4.4233942 9.4046946 13.280146 16.049749 21.031048 26.012348 28.781952 36.403339 39.910175 43.935066 48.916367 52.423203 56.846596 60.722046 64.597496 67.367104 72.348404">variableregression</tspan></text>
<text
           id="text236"
           style="font-variant:normal;font-size:9.96259975px;font-family:'Nimbus Roman';-inkscape-font-specification:NimbusRomNo9L-Regu;writing-mode:lr-tb;fill:#000000;fill-opacity:1;fill-rule:nonzero;stroke:none"
           transform="matrix(1,0,0,-1,224.393,480.506)"><tspan
             id="tspan234"
             y="0"
             x="0 3.3175459 6.6350918 13.828089 20.473143 26.988684 29.758286 34.181679 38.605076 43.586376 48.567677 51.337276 56.318577 61.299877 65.723274 71.59124 76.014641 80.995941 85.419334 90.400635 93.170235 95.939835 100.92113 109.10043 114.08173 121.15518 123.92478 132.10408 135.42162 139.84502 144.26842 149.10027 153.93213 158.35553 164.87106 167.64067 172.62196 180.24336 184.66675 189.09015 194.07144 197.9469 202.3703 205.13989 207.9095 216.08879 220.51219 225.49348 228.81104 232.12859 236.55197 240.97537">(IVR)technique,enablingustorecoverthecausallycorrect</tspan></text>
<text
           id="text240"
           style="font-variant:normal;font-size:9.96259975px;font-family:'Nimbus Roman';-inkscape-font-specification:NimbusRomNo9L-Regu;writing-mode:lr-tb;fill:#000000;fill-opacity:1;fill-rule:nonzero;stroke:none"
           transform="matrix(1,0,0,-1,143.866,469.547)"><tspan
             id="tspan238"
             y="0"
             x="0 4.9812999 9.9625998 14.9439 19.367294 22.684839 25.454443 30.435743 33.205345 38.186646 46.007286 50.988586 55.969887 58.739491 61.509094 65.783051">underlyingpolicy</tspan></text>
<text
           id="text244"
           style="font-variant:normal;font-size:9.96259975px;font-family:'Nimbus Roman';-inkscape-font-specification:NimbusRomNo9L-ReguItal;writing-mode:lr-tb;fill:#000000;fill-opacity:1;fill-rule:nonzero;stroke:none"
           transform="matrix(1,0,0,-1,217.469,469.547)"><tspan
             id="tspan242"
             y="0"
             x="0 6.6450543 9.4146566 12.184259 17.16556 22.14686 27.12816">without</tspan></text>
<text
           id="text248"
           style="font-variant:normal;font-size:9.96259975px;font-family:'Nimbus Roman';-inkscape-font-specification:NimbusRomNo9L-Regu;writing-mode:lr-tb;fill:#000000;fill-opacity:1;fill-rule:nonzero;stroke:none"
           transform="matrix(1,0,0,-1,250.385,469.547)"><tspan
             id="tspan246"
             y="0"
             x="0 3.3175459 7.7409401 12.72224 17.703541 20.473143 23.790689 26.560291 31.541592 39.362232 43.785625 48.209023 52.632416 57.055809 60.931263 67.646057 70.415657 78.236298 82.659691 90.480331 93.249939 98.231239 101.00084 105.42423 108.74178 113.16518 117.58857 120.35817 122.87871 127.71057 134.97331 139.24725 144.22856 149.20985 153.63326 156.95081 159.7204 166.34554 169.66307 177.48372 182.46501 186.88841 190.20596 192.97556 195.74516 200.16856 205.14986 207.91946 212.34285 215.2619">requiringaccesstoaninteractiveexpert.Inparticular,</tspan></text>
<text
           id="text252"
           style="font-variant:normal;font-size:9.96259975px;font-family:'Nimbus Roman';-inkscape-font-specification:NimbusRomNo9L-Regu;writing-mode:lr-tb;fill:#000000;fill-opacity:1;fill-rule:nonzero;stroke:none"
           transform="matrix(1,0,0,-1,143.866,458.588)"><tspan
             id="tspan250"
             y="0"
             x="0 7.192997 15.043526 20.024826 23.342371 27.765766 31.641218 36.064613 41.045914 47.242649 50.012253 57.105621 65.504097 68.273697 72.69709 77.120483 82.101784 87.083084 89.852692 94.833992 99.815292 104.23869 108.11414 114.27102 119.25232 124.23362 132.08415 137.06544 143.80017 151.6507 156.632 161.05539 166.0367 170.46008 173.77763 178.20102 180.97063 183.49117 188.32303 192.74643 196.06396 203.81487 208.79617 213.77747 218.20087 220.97047 223.74007 228.72137 237.12981 242.66901 246.89316 251.6752 256.65649 263.40118">wepresenttwotechniques,oneofagenerative-modelingfavor(</tspan></text>
<text
           id="text256"
           style="font-variant:normal;font-size:9.96259975px;font-family:'Nimbus Mono PS';-inkscape-font-specification:NimbusMonL-Regu;writing-mode:lr-tb;fill:#000000;fill-opacity:1;fill-rule:nonzero;stroke:none"
           transform="matrix(1,0,0,-1,410.583,458.588)"><tspan
             id="tspan254"
             y="0"
             x="0 5.97756 11.95512 17.93268 23.91024 29.8878">DoubIL</tspan></text>
<text
           id="text260"
           style="font-variant:normal;font-size:9.96259975px;font-family:'Nimbus Roman';-inkscape-font-specification:NimbusRomNo9L-Regu;writing-mode:lr-tb;fill:#000000;fill-opacity:1;fill-rule:nonzero;stroke:none"
           transform="matrix(1,0,0,-1,446.449,458.588)"><tspan
             id="tspan258"
             y="0"
             x="0 6.7446804 9.5142832 14.495583 18.918978">)that</tspan></text>
<text
           id="text264"
           style="font-variant:normal;font-size:9.96259975px;font-family:'Nimbus Roman';-inkscape-font-specification:NimbusRomNo9L-Regu;writing-mode:lr-tb;fill:#000000;fill-opacity:1;fill-rule:nonzero;stroke:none"
           transform="matrix(1,0,0,-1,143.866,447.629)"><tspan
             id="tspan262"
             y="0"
             x="0 4.4233942 8.8467884 16.47814 21.45944 24.229044 26.998646 29.76825 32.537853 36.961246 44.034691 48.458088 52.881481 57.304874 61.728271 65.603722 72.119263 74.888863 82.520218 89.593658 93.469116 96.238716 103.98962 108.97092 111.74052 116.16392 118.93352 123.91482 129.88242 134.30582 139.28711 146.91846 151.89977 156.88106 163.94455 168.92584 174.89345 181.96689 186.89838 191.32178 199.07268 203.49606 206.81361 209.58322 214.56451 218.98792 223.96921 227.28676 231.71014 234.47975 237.24936 244.3228 249.86201 254.08615 258.86819 263.84949 269.81711">canutilizeaccesstoasimulatorandoneofagame-theoreticfavor(</tspan></text>
<text
           id="text268"
           style="font-variant:normal;font-size:9.96259975px;font-family:'Nimbus Mono PS';-inkscape-font-specification:NimbusMonL-Regu;writing-mode:lr-tb;fill:#000000;fill-opacity:1;fill-rule:nonzero;stroke:none"
           transform="matrix(1,0,0,-1,416.996,447.629)"><tspan
             id="tspan266"
             y="0"
             x="0 5.97756 11.95512 17.93268 23.91024 29.8878 35.86536 41.842918">ResiduIL</tspan></text>
<text
           id="text272"
           style="font-variant:normal;font-size:9.96259975px;font-family:'Nimbus Roman';-inkscape-font-specification:NimbusRomNo9L-Regu;writing-mode:lr-tb;fill:#000000;fill-opacity:1;fill-rule:nonzero;stroke:none"
           transform="matrix(1,0,0,-1,464.817,447.629)"><tspan
             id="tspan270"
             y="0"
             x="0">)</tspan></text>
<text
           id="text276"
           style="font-variant:normal;font-size:9.96259975px;font-family:'Nimbus Roman';-inkscape-font-specification:NimbusRomNo9L-Regu;writing-mode:lr-tb;fill:#000000;fill-opacity:1;fill-rule:nonzero;stroke:none"
           transform="matrix(1,0,0,-1,143.866,436.67)"><tspan
             id="tspan274"
             y="0"
             x="0 2.7696028 7.7509027 12.174297 17.554102 21.977495 26.40089 33.99239 38.97369 46.007286 49.324833 54.306133 61.897633 66.32103 71.30233 74.07193 76.841537 80.159081 84.582474 87.352074 94.933617 99.924881 102.9834 108.5226 111.29221 116.27351 120.6969 126.63461 135.24229 142.27589 147.25719 150.02679 153.90225 158.32564 163.30695 167.18239 171.05785 176.18858 179.50613 182.82367 187.80498 198.16608 200.93568 205.91698 212.95058 217.93187 222.35527 225.67282 229.54826 234.52957 238.95296 243.37636 246.14597 248.66649 253.49835 260.53195 265.51324 271.44101 276.4223 280.8457 284.16324 287.48077 292.4621 295.77963 303.53055 307.95392 312.93524 317.35861 321.78201">thatcanberunentirelyoffine.Wediscuss,fromtheperspectiveofperformance,</tspan></text>
<text
           id="text280"
           style="font-variant:normal;font-size:9.96259975px;font-family:'Nimbus Roman';-inkscape-font-specification:NimbusRomNo9L-Regu;writing-mode:lr-tb;fill:#000000;fill-opacity:1;fill-rule:nonzero;stroke:none"
           transform="matrix(1,0,0,-1,143.866,425.711)"><tspan
             id="tspan278"
             y="0"
             x="0 2.7696028 7.7509027 15.113264 17.882868 22.864166 27.845467 32.26886 39.073318 44.054619 50.311131 54.734524 59.715824 64.697121 68.014671 72.995972 77.977272 82.958572 87.939873 90.709473 95.690773 103.61104 108.59234 113.57364 118.55494 122.97833 129.23485 136.42784 141.40915 144.17874 148.60214 156.51245 159.28204 164.99062 167.76022 174.57465 179.55594 183.97934 186.74893 189.51854 193.94194 200.19844 202.96805 210.87836 215.85965 219.73511 227.09747 231.52086 239.44113 242.75867 249.95168 256.59674 259.91428 264.89557 269.31897 273.19443 277.6178 285.53809 288.30768 292.73108 297.15448 302.13577 307.11707 309.88669 314.86798 319.84927">thetypesofconfoundingunderwhichitisbettertouseanIVR-basedtechnique</tspan></text>
<text
           id="text284"
           style="font-variant:normal;font-size:9.96259975px;font-family:'Nimbus Roman';-inkscape-font-specification:NimbusRomNo9L-Regu;writing-mode:lr-tb;fill:#000000;fill-opacity:1;fill-rule:nonzero;stroke:none"
           transform="matrix(1,0,0,-1,143.866,414.752)"><tspan
             id="tspan282"
             y="0"
             x="0 2.7696028 7.7509027 11.626354 14.395957 18.819351 23.242746 32.199123 37.180424 44.463085 49.444386 53.867779 58.849079 63.073219 68.05452 70.824127 75.80542 79.122971 83.546364 90.291046 94.714439 97.484039 102.46534 107.44664 110.21625 115.19754 124.14396 128.56735 133.54866 142.50504 147.48633 150.25594 154.67932 163.0778 167.90967 172.33305 175.6506 179.52605 183.94945 193.97182 202.57951 210.96802 216.50722 221.48853 230.4449 235.42619 240.4075 243.17711 252.12352 257.10483 264.39743 269.37875 274.36005 281.65268 286.07605 288.84567 293.82697 298.80826 302.12579 304.89542 307.66501 312.6463 320.39722">insteadofbehavioralcloningandviceversa.Wefndbothofouralgorithms</tspan></text>
<text
           id="text288"
           style="font-variant:normal;font-size:9.96259975px;font-family:'Nimbus Roman';-inkscape-font-specification:NimbusRomNo9L-Regu;writing-mode:lr-tb;fill:#000000;fill-opacity:1;fill-rule:nonzero;stroke:none"
           transform="matrix(1,0,0,-1,143.866,403.793)"><tspan
             id="tspan286"
             y="0"
             x="0 4.4233942 9.4046946 17.155598 22.136898 26.560291 29.877838 36.791882 40.0098 44.233944 49.015991 53.997292 57.314838 61.738232 66.719536 69.489136 76.961082 79.73069 87.202637 92.183937 96.60733 101.58863 105.81277 110.79408 113.56367 118.54498 121.86253 126.28592 131.54617 135.96956 138.73917 143.72047 148.70177 151.47137 156.45267 163.92462 168.90591 176.37787 183.29192 187.16737 189.93697 197.68787 202.66917 205.43878 209.86217 212.63177 217.05516 224.52711 227.84467 232.82596 237.24936 242.13103 246.55443 251.81468 254.58427 259.00766 263.98898 268.97028 271.73987 276.72119 284.19312 286.96274 291.38614 295.26157 300.24289">comparefavorablytobehavioralcloningonasimulatedrocketlandingtask.</tspan></text>
<text
           id="text292"
           style="font-variant:normal;font-size:11.9552002px;font-family:'Nimbus Roman';-inkscape-font-specification:NimbusRomNo9L-Regu;writing-mode:lr-tb;fill:#000000;fill-opacity:1;fill-rule:nonzero;stroke:none"
           transform="matrix(1,0,0,-1,108.299,369.023)"><tspan
             id="tspan290"
             y="0"
             x="0 18.53056">1I</tspan></text>
<text
           id="text296"
           style="font-variant:normal;font-size:9.56410027px;font-family:'Nimbus Roman';-inkscape-font-specification:NimbusRomNo9L-Regu;writing-mode:lr-tb;fill:#000000;fill-opacity:1;fill-rule:nonzero;stroke:none"
           transform="matrix(1,0,0,-1,131.408,369.023)"><tspan
             id="tspan294"
             y="0"
             x="0 7.4982543 13.925329 20.514994 28.013248 35.501938 43.000195 49.972424 56.399498 60.177319 67.675575">NTRODUCTION</tspan></text>
<text
           id="text300"
           style="font-variant:normal;font-size:9.96259975px;font-family:'Nimbus Roman';-inkscape-font-specification:NimbusRomNo9L-Regu;writing-mode:lr-tb;fill:#000000;fill-opacity:1;fill-rule:nonzero;stroke:none"
           transform="matrix(1,0,0,-1,108,345.038)"><tspan
             id="tspan298"
             y="0"
             x="0 8.8567514 13.838052 18.261446 25.733397 30.714695 36.522892 39.292496 44.273796 51.1978 53.967403 58.948704 63.372097 68.353401 71.670944 79.142891 84.124191 89.932388 92.701996 100.4529 103.2225 105.9921 110.4155 113.1851 115.9547 120.936 128.40796 131.17755 135.60095 140.02434 143.34189 148.3232 151.09279 156.0741 163.54604 166.86359 170.18114 176.26828 182.08644 184.85605 189.83734 194.81865 197.58824 202.01164 206.43503 209.20464 213.62804 219.99414 222.76373 227.74504 232.16843 237.42868 244.62167 247.39128 250.16089 257.63284 262.05624 267.03754 272.01883 277.00012 281.98145 289.45337 294.43469 298.85806 306.60898 311.59027 316.57156 320.44702 323.21664 326.53418 330.95758 333.72717 336.49677 341.47809 346.45938 350.33484 355.31613 362.50912 369.43314 373.30859 378.28989 383.27118 388.25247 391.02209">Muchofthetheoryofimitationlearning(IL)indicatesthatwithenoughdemonstrations,weshould</tspan></text>
<text
           id="text304"
           style="font-variant:normal;font-size:9.96259975px;font-family:'Nimbus Roman';-inkscape-font-specification:NimbusRomNo9L-Regu;writing-mode:lr-tb;fill:#000000;fill-opacity:1;fill-rule:nonzero;stroke:none"
           transform="matrix(1,0,0,-1,108,334.08)"><tspan
             id="tspan302"
             y="0"
             x="0 4.9812999 11.825606 16.249001 21.230301 23.999903 30.84421 33.613811 41.016026 45.439419 49.862812 54.286209 59.267506 62.585052 67.008446 69.778053 74.201447 76.971046 84.383224 87.700768 92.124161 96.547554 101.37942 106.21128 110.63467 116.37313 119.14273 124.12403 130.96834 135.24229 140.2236 145.2049 149.6283 152.94583 155.71544 158.48505 164.7814 169.76271 174.744 177.51361 180.2832 184.55716 188.8909 194.45003 203.85472 208.83601 213.25941 220.66162 227.85463 234.69893 239.12233 244.10362 249.08493 251.85452 259.25674 262.57428 271.08234 275.50574 278.27533 283.25665 288.23795 291.55548 294.3251 297.0947 302.07599 309.8269 316.12326 318.89285 326.30502 331.28635 334.60388 339.02728 343.45068 346.22028 348.98987 353.41327 360.25757 365.23889 369.9711 377.16412 381.33844 386.17029 390.59369 393.51273">beabletoaccuratelyrecovertheexpert’spolicy.WhenweapplyILalgorithmsinpracticehowever,</tspan></text>
<text
           id="text308"
           style="font-variant:normal;font-size:9.96259975px;font-family:'Nimbus Roman';-inkscape-font-specification:NimbusRomNo9L-Regu;writing-mode:lr-tb;fill:#000000;fill-opacity:1;fill-rule:nonzero;stroke:none"
           transform="matrix(1,0,0,-1,108,323.121)"><tspan
             id="tspan306"
             y="0"
             x="0 7.192997 14.196705 18.072157 23.053457 30.794397 35.217793 37.987392 40.756996 48.5079 52.931293 59.387058 63.262508 67.685905 74.679649 77.449249 82.43055 86.853951 97.185165 102.16647 105.48401 110.46531 115.44661 120.42791 124.8513 131.84505 139.59595 144.01935 149.00064 151.77025 155.0878 159.51118 163.38664 166.15625 168.92584 176.48746 179.25706 184.23836 188.66176 193.64305 196.9606 200.27815 204.70154 209.12494 214.46489 218.88829 222.76373 225.53334 228.30295 236.05385 240.47723 243.24684 247.67024 254.12601 259.1073 264.99521 267.7648 272.74609 279.74982 284.02377 289.00507 293.98636 298.40976 301.72729 304.49692 307.26651 313.71231 318.6936 323.6749 326.44452 329.21411 333.48807 341.04968 344.36722 353.22397 358.20529 360.97488 363.74448 368.16788 374.05579 378.47919 383.8291 388.25247 391.02209 393.51273">wesometimesseethemproducemanifestlyincorrectestimatesoftheexpert’spolicy(Mulleretal.,</tspan></text>
<text
           id="text312"
           style="font-variant:normal;font-size:9.96259975px;font-family:'Nimbus Roman';-inkscape-font-specification:NimbusRomNo9L-Regu;writing-mode:lr-tb;fill:#000000;fill-opacity:1;fill-rule:nonzero;stroke:none"
           transform="matrix(1,0,0,-1,108,312.162)"><tspan
             id="tspan310"
             y="0"
             x="0 4.9812999 9.9625998 14.9439 19.9252 25.892797 32.537853 37.51915 42.50045 46.674782 51.656082 54.425682 57.195286 59.96489 67.596245 72.019638 77.987236 82.410629 85.180229 87.670883 93.369484 98.350784 103.33208 108.31339 113.29469 119.26228 124.24358 131.86497 139.05797 143.48137 147.90475 156.09401 160.51741 166.48502 170.9084 173.67801 176.16866 181.8573 186.83861 191.8199 196.80119 201.7825 207.76006 214.40512 218.82851 223.80981 227.68526 232.10866 238.07625 242.49965 248.4772 252.9006 255.6702 258.16086 263.84949 268.83081 273.8121 278.7934 283.77469 289.74231 296.78586 301.76715 306.19055 311.72977 316.15314 322.67865 327.10205 333.06964 337.49304 340.26263 342.7533 348.44193 353.4332 358.41449 363.39578 368.37711 371.69464 379.4057 386.59869 391.57999">2006;Codevillaetal.,2019;deHaanetal.,2019;Bansaletal.,2018;Kueferetal.,2017).One</tspan></text>
<text
           id="text316"
           style="font-variant:normal;font-size:9.96259975px;font-family:'Nimbus Roman';-inkscape-font-specification:NimbusRomNo9L-Regu;writing-mode:lr-tb;fill:#000000;fill-opacity:1;fill-rule:nonzero;stroke:none"
           transform="matrix(1,0,0,-1,108,301.203)"><tspan
             id="tspan314"
             y="0"
             x="0 4.9812999 9.9625998 13.838052 17.713503 20.483105 25.464405 28.234009 35.237717 38.555264 42.978657 47.40205 51.277504 56.258801 63.810452 67.127998 72.109299 78.007156 80.776764 85.758064 88.527664 94.983429 99.964729 104.94603 109.36942 114.35072 119.33202 127.08292 131.50632 136.48763 141.46892 149.03053 151.79018 158.24594 161.01555 165.99684 170.42024 175.77016 180.19354 187.94444 192.92575 195.69536 199.01289 201.7825 206.2059 210.62929 213.3989 216.16849 220.50223 225.59311 232.78612 239.77986 244.76115 249.74246 252.51205 260.07367 265.05496 269.27911 274.11096 281.11469 285.53809 289.96149 294.38486 298.80826 302.68372 309.13947 311.90909">possiblereasonforthisphenomenonisthatempirically,weonlyhaveaccessto</tspan></text>
<text
           id="text320"
           style="font-variant:normal;font-size:9.96259975px;font-family:'Nimbus Roman';-inkscape-font-specification:NimbusRomNo9L-ReguItal;writing-mode:lr-tb;fill:#000000;fill-opacity:1;fill-rule:nonzero;stroke:none"
           transform="matrix(1,0,0,-1,427.464,301.203)"><tspan
             id="tspan318"
             y="0"
             x="0 4.9812999 9.9625998 12.732203 16.607655">noisy</tspan></text>
<text
           id="text324"
           style="font-variant:normal;font-size:9.96259975px;font-family:'Nimbus Roman';-inkscape-font-specification:NimbusRomNo9L-Regu;writing-mode:lr-tb;fill:#000000;fill-opacity:1;fill-rule:nonzero;stroke:none"
           transform="matrix(1,0,0,-1,451.072,301.203)"><tspan
             id="tspan322"
             y="0"
             x="0 3.3175459 7.7409401 12.164334 17.145634 20.463181 25.444481 28.214083 33.195385 38.176682 44.632446 49.613747">recordingsof</tspan></text>
<text
           id="text328"
           style="font-variant:normal;font-size:9.96259975px;font-family:'Nimbus Roman';-inkscape-font-specification:NimbusRomNo9L-Regu;writing-mode:lr-tb;fill:#000000;fill-opacity:1;fill-rule:nonzero;stroke:none"
           transform="matrix(1,0,0,-1,108,290.244)"><tspan
             id="tspan326"
             y="0"
             x="0 7.192997 12.174297 16.597692 21.698544 24.468145 29.449446 36.21405 40.488007 45.469307 50.450607 54.874001 58.191547 63.292397 68.273697 71.043297 76.024597 81.553841 87.640991 92.622292 95.391891 101.60856 106.03195 109.34949 112.1191 114.8887 117.6583 122.0817 126.5051 131.60594 136.58725 141.01064 143.78024 148.20364 150.97324 156.0741 161.05539 165.47879 171.69545 176.67674 181.10014 185.52354 192.83609 195.60568 200.58699 205.56828 211.78496 215.00287 219.42627 225.07506 230.05637 234.33031 239.31161 242.08122 246.50461 250.92801 253.69762 258.121 265.44351 270.4248 277.73737 285.48825 290.46957 294.34503 299.44586 304.42715 307.74472 310.51431 315.49561 321.15439 323.92398 328.90527 333.32867 338.30997 341.6275 346.0509 348.82053 351.59012 356.01352 360.43692 365.53775 372.63113 377.61243 380.92996 388.25247 391.02209">whattheexpertdid.Thiscriticaldetailhasbeenthusfarneglectedbymostpriortheoreticalworkin</tspan></text>
<text
           id="text332"
           style="font-variant:normal;font-size:9.96259975px;font-family:'Nimbus Roman';-inkscape-font-specification:NimbusRomNo9L-Regu;writing-mode:lr-tb;fill:#000000;fill-opacity:1;fill-rule:nonzero;stroke:none"
           transform="matrix(1,0,0,-1,108,279.285)"><tspan
             id="tspan330"
             y="0"
             x="0 2.7696028 10.520506 13.290109 16.059711 20.483105 23.252708 26.02231 31.003611 38.475563 41.245163 45.66856 50.091953 53.4095 58.3908 61.1604 66.141701 71.123001 76.702057 85.309746 92.223785 95.541336 100.52264 104.94603 109.92733 116.29343 119.06303 126.53498 129.30458 134.28589 137.05548 143.42159 148.40289 152.82628 157.80759 162.23097 168.03917 173.02048 180.49243 185.47372 190.20596 199.8896 204.87091 209.2943 213.16975 218.43001 221.1996 228.67155 231.44116 235.86455 240.28795 243.6055 251.07744 254.39499 257.71252 262.69385 272.93539 275.70499 282.79837 290.27032 295.25162 298.02121 303.0025 307.98383 314.34991 319.33121 325.1394 330.12073 335.10202 337.87161 341.74707 349.21902 354.20032 358.62372 361.39331 365.81671">imitationlearning.Wefocusinthispaperonhowbesttolearnfromtwokindsofnoisydata:</tspan></text>
<text
           id="text336"
           style="font-variant:normal;font-size:9.96259975px;font-family:'Nimbus Roman';-inkscape-font-specification:NimbusRomNo9L-Regu;writing-mode:lr-tb;fill:#000000;fill-opacity:1;fill-rule:nonzero;stroke:none"
           transform="matrix(1,0,0,-1,135.397,258.124)"><tspan
             id="tspan334"
             y="0"
             x="0">•</tspan></text>
<text
           id="text340"
           style="font-variant:normal;font-size:9.96259975px;font-family:'Nimbus Roman';-inkscape-font-specification:NimbusRomNo9L-ReguItal;writing-mode:lr-tb;fill:#000000;fill-opacity:1;fill-rule:nonzero;stroke:none"
           transform="matrix(1,0,0,-1,143.866,258.124)"><tspan
             id="tspan338"
             y="0"
             x="0 6.0871487 10.510543 15.392217 20.273891 24.697285 29.678585 34.659885 39.641186 46.385864 51.367165 56.348465 59.118069 62.993519">Exogenousnoise</tspan></text>
<text
           id="text344"
           style="font-variant:normal;font-size:9.96259975px;font-family:'Nimbus Roman';-inkscape-font-specification:NimbusRomNo9L-Regu;writing-mode:lr-tb;fill:#000000;fill-opacity:1;fill-rule:nonzero;stroke:none"
           transform="matrix(1,0,0,-1,211.287,258.124)"><tspan
             id="tspan342"
             y="0"
             x="0 6.6251292 16.029823 21.011124 25.434517 33.285046 40.478043 47.780628 52.761929 57.743229 61.618683 66.042076 69.359619 74.191483 81.484108 85.758064 90.739357 95.720657 100.14406 103.4616 109.10043 113.52383 117.94722 120.71683 123.48643 128.46773 133.44902 140.20367 144.62706 149.60837 152.9259 156.24345 161.22476 166.20605 168.97566 173.39905 181.24959 186.23088 194.09137 201.384 206.3653 210.7887 214.10623 217.98169 220.7513 224.62674 227.39635 231.81973 236.80104 242.44983 247.43114 252.41243 255.18204 259.0575 266.3501 269.66766 274.09106 276.5817 281.56299 288.28775">:Whenweobserveexpertactionscorruptedbyapersistentnoise(e.g.a</tspan></text>
<text
           id="text348"
           style="font-variant:normal;font-size:9.96259975px;font-family:'Nimbus Roman';-inkscape-font-specification:NimbusRomNo9L-Regu;writing-mode:lr-tb;fill:#000000;fill-opacity:1;fill-rule:nonzero;stroke:none"
           transform="matrix(1,0,0,-1,143.866,247.165)"><tspan
             id="tspan346"
             y="0"
             x="0 3.2179198 7.641314 12.622614 15.392217 18.161819 25.63377 28.403372 33.285046 38.266346 42.141796 44.9114 47.681004 52.104397 59.576347 62.345951 67.327248 71.750648 77.010895 81.992195 86.415596 89.733139 93.608589 96.378189 100.25365 103.02325 107.44664 112.42794 115.19754 117.96715 125.43909 130.42039 134.8438 138.16133 140.93094 145.91225 149.22978 154.21109 160.57719 165.00058 169.42398 172.19357 174.96318 179.94449 184.92578 191.29189 196.27318 200.69658 204.01413 208.99542 212.31297 219.22702 221.99661 226.97792 231.25188 238.72382 243.14722 246.46477 253.3788 257.65277 262.48462 266.90802 271.33142 276.31271 279.08231 283.50571 290.97766 293.74725 301.21921 303.9888 308.97012 315.88416 320.81564 325.23904 332.98993 337.41333 340.7309">faultyjoystickthatpersistentlyperturbsactionsbeforetheyareexecutedinthegame).</tspan></text>
<text
           id="text352"
           style="font-variant:normal;font-size:9.96259975px;font-family:'Nimbus Roman';-inkscape-font-specification:NimbusRomNo9L-Regu;writing-mode:lr-tb;fill:#000000;fill-opacity:1;fill-rule:nonzero;stroke:none"
           transform="matrix(1,0,0,-1,135.397,231.743)"><tspan
             id="tspan350"
             y="0"
             x="0">•</tspan></text>
<text
           id="text356"
           style="font-variant:normal;font-size:9.96259975px;font-family:'Nimbus Roman';-inkscape-font-specification:NimbusRomNo9L-ReguItal;writing-mode:lr-tb;fill:#000000;fill-opacity:1;fill-rule:nonzero;stroke:none"
           transform="matrix(1,0,0,-1,143.866,231.743)"><tspan
             id="tspan354"
             y="0"
             x="0 6.0871487 11.068449 16.049749 20.931423 25.813097 30.23649 35.217793 40.199093 45.180389 51.69593 56.677231 61.658531 64.428131 68.303589">Endogenousnoise</tspan></text>
<text
           id="text360"
           style="font-variant:normal;font-size:9.96259975px;font-family:'Nimbus Roman';-inkscape-font-specification:NimbusRomNo9L-Regu;writing-mode:lr-tb;fill:#000000;fill-opacity:1;fill-rule:nonzero;stroke:none"
           transform="matrix(1,0,0,-1,216.593,231.743)"><tspan
             id="tspan358"
             y="0"
             x="0 6.1568866 15.561582 20.542881 24.966276 32.587666 39.780663 46.844147 51.825447 59.446835 64.428131 69.409431 74.819122 79.800423 84.781723 88.657181 93.080574 96.398117 101.22998 108.29346 111.06306 116.04436 123.10785 126.42539 131.40669 134.1763 139.58598 143.46144 146.23105 150.65443 153.42404 160.48752 164.91092 172.5323 176.80626 181.78757 186.76886 191.19226 194.5098 199.91949 204.90079 208.77625 213.19965 220.83099 223.59064 231.22198 236.20328 238.97289 243.39629 251.01767 255.44107 263.06244 267.48584 271.90924 274.67883 277.44846 282.42975">:Whenwedonotobservethefullstateanexpertusedtopickanaction</tspan></text>
<text
           id="text364"
           style="font-variant:normal;font-size:9.96259975px;font-family:'Nimbus Roman';-inkscape-font-specification:NimbusRomNo9L-Regu;writing-mode:lr-tb;fill:#000000;fill-opacity:1;fill-rule:nonzero;stroke:none"
           transform="matrix(1,0,0,-1,143.866,220.784)"><tspan
             id="tspan362"
             y="0"
             x="0 3.3175459 7.7409401 10.23159 15.212891 20.791946 23.561548 28.542849 35.456894 38.226498 42.649891 47.073284 50.390831 55.372131 59.795525 65.603722 70.585022 75.566322 80.826576 85.807877 90.789177 95.521408 102.71441 105.48401 110.46531 117.93726 120.70686 125.68816 130.11156 133.42911 137.85249 140.6221 146.9882 151.41159 158.88354 163.30695 168.28824 172.71164 180.46254 187.93449 192.91579 197.33919 202.32048 205.09009 210.07138 217.54333 224.45738 229.43867 234.41998 239.40128 242.71883 246.03638">(e.g.thelearnernotknowingthere’sanenemybehindadoor).</tspan></text>
<text
           id="text368"
           style="font-variant:normal;font-size:9.96259975px;font-family:'Nimbus Roman';-inkscape-font-specification:NimbusRomNo9L-Regu;writing-mode:lr-tb;fill:#000000;fill-opacity:1;fill-rule:nonzero;stroke:none"
           transform="matrix(1,0,0,-1,108,199.623)"><tspan
             id="tspan366"
             y="0"
             x="0 6.0871487 11.068449 17.992456 22.973755 27.39715 32.667366 37.090759 40.159241 43.476788 47.900181 52.323574 57.593792 62.575092 68.39325 72.816643 75.586243 78.35585 83.337151 87.760544 93.578705 98.560005 101.32961 106.31091 113.80278 118.78408 124.60224 129.58354 134.00693 137.32448 141.19994 143.96953 147.84499 150.61459 155.03798 160.01929 165.28949 170.2708 175.25209 178.0217 181.89716 188.82115 192.1387 199.8896 204.87091 208.18845 215.11246 218.43001 223.4113 226.72885 234.47975 238.90315 241.67274 244.44235 248.77608 253.76735 258.19073">Theneteffectofeitherkindofpersistentnoise(moreformally,an</tspan></text>
<text
           id="text372"
           style="font-variant:normal;font-size:9.96259975px;font-family:'Nimbus Roman';-inkscape-font-specification:NimbusRomNo9L-ReguItal;writing-mode:lr-tb;fill:#000000;fill-opacity:1;fill-rule:nonzero;stroke:none"
           transform="matrix(1,0,0,-1,373.676,199.623)"><tspan
             id="tspan370"
             y="0"
             x="0 4.9812999 9.9625998 14.9439 19.9252 23.800652 28.224047 32.099499 36.522892 40.946285 48.4282 52.851593 57.832893 62.814194 65.583794 70.565094 75.546394 80.527695 85.508995 89.932388">unobservedconfounder</tspan></text>
<text
           id="text376"
           style="font-variant:normal;font-size:9.96259975px;font-family:'Nimbus Roman';-inkscape-font-specification:NimbusRomNo9L-Regu;writing-mode:lr-tb;fill:#000000;fill-opacity:1;fill-rule:nonzero;stroke:none"
           transform="matrix(1,0,0,-1,467.714,199.623)"><tspan
             id="tspan374"
             y="0"
             x="0 5.8181586 8.5877609 14.963825 17.733427 25.21534 27.984943 32.966244">)istoin-</tspan></text>
<text
           id="text380"
           style="font-variant:normal;font-size:9.96259975px;font-family:'Nimbus Roman';-inkscape-font-specification:NimbusRomNo9L-Regu;writing-mode:lr-tb;fill:#000000;fill-opacity:1;fill-rule:nonzero;stroke:none"
           transform="matrix(1,0,0,-1,108,188.664)"><tspan
             id="tspan378"
             y="0"
             x="0 2.7696028 6.0871487 11.068449 16.049749 21.031048 25.454443 31.99987 34.769474 39.192867 46.943771 51.925072 56.906372 60.223915 64.647308 69.538948 73.962341 78.943642 82.261185 85.578735 90.002129 92.771729 97.195129 99.964729 102.73433 107.71563 112.69693 118.68446 121.45406 128.55739 131.327 136.30829 142.85371 146.17126 150.59467 155.01805 159.99936 163.31689 168.2982 172.7216 179.82494 184.24832 188.67172 191.44131 194.21092 199.19223 204.17352 210.17101 212.94061 217.92191 222.34531 227.22697 232.20828 239.31161 244.29291 249.27422 254.16585 259.14716 263.37131 268.20316 274.7486 277.51819 282.49948 286.92288 289.69247 295.13205 297.90167 301.21921 306.2005 312.73596 317.15936 321.58276 326.56406 330.43951 336.98495 339.75455 346.85788 349.62747 354.6088 361.15421 364.47177 368.89514 373.31854 378.29984 381.6174 386.59869 391.02209">troducetemporalcorrelationsintherecordedactionsthatdonothavetheirtruecauseintherecorded</tspan></text>
<text
           id="text384"
           style="font-variant:normal;font-size:9.96259975px;font-family:'Nimbus Roman';-inkscape-font-specification:NimbusRomNo9L-Regu;writing-mode:lr-tb;fill:#000000;fill-opacity:1;fill-rule:nonzero;stroke:none"
           transform="matrix(1,0,0,-1,108,177.705)"><tspan
             id="tspan382"
             y="0"
             x="0 3.8754513 6.6450543 11.068449 13.838052 18.261446 25.474369 30.864136 35.845436 42.191612 46.465565 51.446865 55.870262 63.621162 68.602463 71.372063 75.795464 81.46418 85.887573 90.868874 95.850174 99.725624 102.49523 107.47653 111.89993 118.2461 121.56364 125.98704 130.41043 135.39174 138.70927 143.69058 146.46019 151.44148 156.42278 163.33682 168.31813 174.66431 179.08769 187.10759 191.38155 196.36284 201.34415 205.76755 209.08508 214.88332 219.86462 223.18216 225.7027 230.53456 234.95796 241.3141 245.18954 247.95915 252.69139 259.88437 262.65399 267.63528 275.65518 280.63647 285.36871 292.56171 300.57166 304.99503 310.80322 318.25525 322.13071 324.9003 329.88162 337.90149 341.77695 344.54657 349.52786 354.50916 361.72208 365.03961 371.3858 375.8092 378.5788 384.38699 391.57999">state.Forexample,considerrecordingsofanexpertdriverslowingdownatastopsign.Ifallwe</tspan></text>
<text
           id="text388"
           style="font-variant:normal;font-size:9.96259975px;font-family:'Nimbus Roman';-inkscape-font-specification:NimbusRomNo9L-Regu;writing-mode:lr-tb;fill:#000000;fill-opacity:1;fill-rule:nonzero;stroke:none"
           transform="matrix(1,0,0,-1,108,166.746)"><tspan
             id="tspan386"
             y="0"
             x="0 4.9812999 8.2988462 12.72224 16.597692 21.021086 26.002386 31.65118 34.420784 39.402084 46.70467 49.47427 53.897667 58.32106 61.638607 66.619904 71.043297 77.240036 84.433037 87.202637 89.972244 97.832733 102.25613 109.01077 112.88622 115.65582 120.07922 122.84882 130.15141 132.92101 137.90231 142.88361 147.86491 153.5137 156.28331 163.03795 170.23094 175.21225 179.63564 182.40524 187.38655 191.80994 198.00667 200.77628 205.75758 213.06017 217.33412 222.31541 227.29672 231.72011 235.03766 240.68645 247.77983 252.20322 258.95786 262.83331 265.60291 270.33514 277.52814 280.29776 285.27905 293.13956 298.12085 302.85309 310.04608 317.90656 322.32996 327.97876 330.74835 335.72964 343.03226 345.80185 350.22525 354.10068 359.74948 362.5191 365.2887 373.03958 377.46298 381.33844 384.10803 388.53143 393.51273">presentthelearnerwithasstateinputiswhethertheexpertwasslowingdownatthelasttimestep,</tspan></text>
<text
           id="text392"
           style="font-variant:normal;font-size:9.96259975px;font-family:'Nimbus Roman';-inkscape-font-specification:NimbusRomNo9L-Regu;writing-mode:lr-tb;fill:#000000;fill-opacity:1;fill-rule:nonzero;stroke:none"
           transform="matrix(1,0,0,-1,108,155.787)"><tspan
             id="tspan390"
             y="0"
             x="0 2.7696028 7.7509027 12.024858 20.253965 27.446962 30.216566 32.986168 39.003578 41.773182 44.542786 49.424458 53.847855 56.617455 64.856529 67.626129 72.049522 76.472916 79.790466 88.019569 90.789177 99.01828 102.89373 105.66334 113.41424 118.39554 121.16514 129.39424 132.71179 137.13519 142.11649 146.53989 150.96327 156.99065 159.76025 164.74155 172.41275 176.68671 181.66801 186.64931 191.07271 194.39026 197.15985 199.92946 207.05272 212.03401 216.45741 220.33286 226.35027 230.77367 235.19707 237.96666 240.73627 245.71756 250.69887 258.55936 264.64651 269.62781 274.6091 278.48456 284.41229 289.39362 294.37491 298.79831 306.47946 309.24905 314.23038 321.90158 326.32495 330.74835 337.31372 342.29501 346.56897 351.55026 354.31985 359.30118 366.42444 369.19403 377.43311 381.30856 384.07816 388.81039">theywilllikelylearntosimplyrepeattheexpert’spastaction.Thus,oncethecarbeginstoslow</tspan></text>
<text
           id="text396"
           style="font-variant:normal;font-size:9.96259975px;font-family:'Nimbus Roman';-inkscape-font-specification:NimbusRomNo9L-Regu;writing-mode:lr-tb;fill:#000000;fill-opacity:1;fill-rule:nonzero;stroke:none"
           transform="matrix(1,0,0,-1,108,144.828)"><tspan
             id="tspan394"
             y="0"
             x="0 4.9812999 9.7135353 16.906532 21.887833 27.297523 30.067127 35.666107 40.089504 45.070801 50.052101 52.821705 55.591309 60.572609 65.553909 69.977303 76.692093 79.4617 87.272377 91.147827 93.917427 98.649666 108.67204 113.65334 118.38557 125.57858 130.55988">down,itcontinuestoslowdown,</tspan></text>
<text
           id="text400"
           style="font-variant:normal;font-size:9.96259975px;font-family:'Nimbus Roman';-inkscape-font-specification:NimbusRomNo9L-ReguItal;writing-mode:lr-tb;fill:#000000;fill-opacity:1;fill-rule:nonzero;stroke:none"
           transform="matrix(1,0,0,-1,243.971,144.828)"><tspan
             id="tspan398"
             y="0"
             x="0 3.5068352 7.5317254 12.513025 17.494326 21.001162 25.98246 28.752064 33.175457 37.050911 43.755737 48.737038 54.345982 60.991035 65.972336 70.395729 73.165337 78.146637 82.57003 89.274857 92.044464 97.025764 101.44916 104.95599 112.20876 114.97836 121.69316 129.50383 133.37929 136.1489 141.13019 148.94087 152.81631 155.58592 160.56723 168.38786 173.36917 176.87601 181.29939 185.17485 189.59824 194.57954">regardlessofwhetherthereisastopsignpresent</tspan></text>
<text
           id="text404"
           style="font-variant:normal;font-size:9.96259975px;font-family:'Nimbus Roman';-inkscape-font-specification:NimbusRomNo9L-Regu;writing-mode:lr-tb;fill:#000000;fill-opacity:1;fill-rule:nonzero;stroke:none"
           transform="matrix(1,0,0,-1,441.315,144.828)"><tspan
             id="tspan402"
             y="0"
             x="0 6.6052036 13.798201 19.397182 26.659918 34.41082 39.39212 42.709667 49.96244 54.385834 59.367134">.Atamoreab-</tspan></text>
<text
           id="text408"
           style="font-variant:normal;font-size:9.96259975px;font-family:'Nimbus Roman';-inkscape-font-specification:NimbusRomNo9L-Regu;writing-mode:lr-tb;fill:#000000;fill-opacity:1;fill-rule:nonzero;stroke:none"
           transform="matrix(1,0,0,-1,108,133.869)"><tspan
             id="tspan406"
             y="0"
             x="0 3.8754513 6.6450543 9.9625998 14.385994 18.809389 24.677361 27.446962 31.621292 36.453152 40.876549 43.646152 49.384609 52.154209 57.135509 61.558907 65.434357 72.956123 76.831573 81.812874 85.130417 87.900017 94.87384 99.855141">stractlevel,thesesortsof</tspan></text>
<text
           id="text412"
           style="font-variant:normal;font-size:9.96259975px;font-family:'Nimbus Roman';-inkscape-font-specification:NimbusRomNo9L-ReguItal;writing-mode:lr-tb;fill:#000000;fill-opacity:1;fill-rule:nonzero;stroke:none"
           transform="matrix(1,0,0,-1,214.272,133.869)"><tspan
             id="tspan410"
             y="0"
             x="0 2.7696028 7.7509027 12.174297 16.049749 18.819351 21.588955 29.668623 34.649921 38.077057 43.058357 48.039658 50.809261 55.232655 62.425652">inertiaproblems</tspan></text>
<text
           id="text416"
           style="font-variant:normal;font-size:9.96259975px;font-family:'Nimbus Roman';-inkscape-font-specification:NimbusRomNo9L-Regu;writing-mode:lr-tb;fill:#000000;fill-opacity:1;fill-rule:nonzero;stroke:none"
           transform="matrix(1,0,0,-1,283.67,133.869)"><tspan
             id="tspan414"
             y="0"
             x="0 4.4233942 8.8467884 16.926456 20.244003 24.667398 28.542849 33.524151 36.293751 42.161724 45.479267 48.796814 53.778114 64.627388 67.396988 71.820381 79.571289 84.552589 89.53389 92.851433 97.274826 103.1428 107.56619 112.54749 115.86504 119.18259 123.60598 126.37558 130.79898 133.56857 136.33818 141.31949 146.30078 153.2746 158.25591 162.67929 165.4489 172.64189 177.06529 181.48868 189.56836 194.54965 198.97305 201.74265 205.0602 212.03401 217.01532">canresultfromtemporalcorrelationsbetweenpairsof</tspan></text>
<text
           id="text420"
           style="font-variant:normal;font-size:9.96259975px;font-family:'Nimbus Roman';-inkscape-font-specification:NimbusRomNo9L-Regu;writing-mode:lr-tb;fill:#000000;fill-opacity:1;fill-rule:nonzero;stroke:none"
           transform="matrix(1,0,0,-1,108,122.91)"><tspan
             id="tspan418"
             y="0"
             x="0 4.4233942 8.8467884 11.616391 14.385994 19.367294 24.348595 31.302488 34.620033 39.04343 41.534081 46.515381 53.867779 56.637383 61.618683 69.120522 73.543915 76.612396 79.929939 84.353333 88.776726 94.624771 99.606071 106.00207 108.77167 113.75297 121.25481 125.13026 127.89986 132.88116 140.95087 144.82631 147.59592 152.57722 157.55852 163.95451 168.93581 173.35921 176.1288 181.11011 189.16985 192.4874 196.91078 202.45 206.87338 211.29678 214.06639 218.48978 226.54953 229.31912 237.37888 240.14847 245.12978 252.63161 256.50705 259.27667 263.70007 266.46967 273.98148 277.29901 281.72241 284.21304 289.19437 296.5368 299.3064 304.28769 311.78952 316.77084 321.19421 325.06967 330.92767 335.35107 339.77448 342.54407 345.31369 350.29498 358.35474 363.08694 367.51035 370.82791 373.5975 378.0209 383.0022 385.77179 390.19519 393.51273">actions(e.g.theeffectofthestopsign)beingrefectedinthestate(e.g.thepastactionvariable),</tspan></text>
<text
           id="text424"
           style="font-variant:normal;font-size:9.96259975px;font-family:'Nimbus Roman';-inkscape-font-specification:NimbusRomNo9L-Regu;writing-mode:lr-tb;fill:#000000;fill-opacity:1;fill-rule:nonzero;stroke:none"
           transform="matrix(1,0,0,-1,108,111.952)"><tspan
             id="tspan422"
             y="0"
             x="0 2.7696028 7.192997 11.616391 16.597692 19.367294 24.348595 32.169235 34.938839 42.749516 46.624969 51.60627 56.587566 59.905113 62.674717 67.656013 72.637314 79.352112 83.775505 88.756805 92.074348 95.391891 99.815292 102.58489 107.00829 109.77789 112.54749 117.52879 122.51009 129.21492 134.19623 138.61961 141.38922 148.58221 153.00562 157.429 165.24965 169.12509 171.8947 176.3181 179.08769 186.35043 190.77383 195.75513 203.56581 207.9892 212.4126 215.18219 217.9518 222.93311 230.75374 233.52335 238.50464 242.92804 248.52702 251.29662 256.27792 263.54065 266.31027 270.73364 275.15704 278.47461 283.4559 287.8793 294.03616 301.78708 304.55667 309.53799 314.51929 320.11826 325.09955 330.08087 333.39841 338.3797 341.69727 344.46686 349.44815 354.42944 358.85284 361.62247 366.04584 368.81546 376.63608 379.4057 383.8291 386.59869 391.02209">leadingtospuriouscorrelationsbetweenstateandactionthatthelearnermightunfortunatelylatch</tspan></text>
<text
           id="text428"
           style="font-variant:normal;font-size:9.96259975px;font-family:'Nimbus Roman';-inkscape-font-specification:NimbusRomNo9L-Regu;writing-mode:lr-tb;fill:#000000;fill-opacity:1;fill-rule:nonzero;stroke:none"
           transform="matrix(1,0,0,-1,108,100.993)"><tspan
             id="tspan426"
             y="0"
             x="0 4.9812999 9.9625998 12.732203 20.204153 23.521698 27.945093 30.435743 35.417042 40.996098 44.313644 48.737038 53.718338 58.141735 62.565128 65.334732 68.104332 73.085632 80.557587 83.327187 88.308487 95.222534 100.20383 104.62723 108.50268 113.76293 118.18633 122.60972 125.37932 128.14893 133.13022 138.11153 141.42908">onto(e.g.repeatingthepastaction).</tspan></text>
<text
           id="text432"
           style="font-variant:normal;font-size:9.96259975px;font-family:'Nimbus Roman';-inkscape-font-specification:NimbusRomNo9L-Regu;writing-mode:lr-tb;fill:#000000;fill-opacity:1;fill-rule:nonzero;stroke:none"
           transform="matrix(1,0,0,-1,108,84.056)"><tspan
             id="tspan430"
             y="0"
             x="0 9.4046946 14.385994 18.809389 24.547846 28.423298 33.404598 38.385899 43.367199 46.136799 54.086956 61.279953 68.672203 73.653503 78.634804 83.616104 91.008354 93.777954 101.71815 104.48775 108.91114 113.33454 116.65208 124.60224 127.37184 132.35313 136.77654 144.72668 147.49629 155.44644 158.21605 163.19736 167.62074 171.4962 178.88844 183.31184 188.29314 193.27444 196.59198 201.57329 206.55458 211.53589 216.51718 220.94058 228.89073 232.76619 237.18958 239.95918 242.72879 245.49838 250.47969 255.46098 259.33643 268.27289 275.46588 277.98642 282.8183 287.24167 295.19183 302.38483 309.7771 314.75839 322.70853 327.68985 332.67114 338.40961 343.3909 347.61505 352.4469 359.83914 364.26254 368.68594 373.10934 377.53271 381.40817 388.25247 391.02209">Whatshouldwehopetolearnthenintheseconfoundedsettings?Givenwedonothaveaccessto</tspan></text>
<text
           id="text436"
           style="font-variant:normal;font-size:9.96259975px;font-family:'Nimbus Roman';-inkscape-font-specification:NimbusRomNo9L-Regu;writing-mode:lr-tb;fill:#000000;fill-opacity:1;fill-rule:nonzero;stroke:none"
           transform="matrix(1,0,0,-1,108,73.097)"><tspan
             id="tspan434"
             y="0"
             x="0 2.7696028 7.7509027 14.48562 19.466921 24.448221 29.42952 34.41082 38.28627 42.709667 46.02721 50.859074 55.282467 62.565128 66.988525 71.969826 76.951126 80.268669 85.249969 90.23127 95.21257 100.19387 104.61726 107.5363 112.37813 119.10288 122.42043 126.84383 131.26721 135.14267 140.12396 145.10527 149.52866 154.50996 157.27957 164.01428 168.43768 173.41898 178.40028 181.16988 185.59328 192.32799 195.0976 201.27441 204.04401 211.33664 215.76003 220.74133 224.61678 229.59808 232.91562 239.65034 242.41995 247.40125 251.82465 256.90558 264.09857 270.8233 278.57422 282.99762 285.76721 290.19061 297.48325 300.25284 305.23413 311.96884 316.95016 321.37357 326.35486 330.57898 335.5603 338.3299 343.31119 348.93011 353.91141 359.54028 363.96365 371.25629 375.53024 380.51154 385.49286 389.91623 393.2338">theunobservedconfounder,areasonablechoiceistoensurethatwematchthebehaviorofanexpert</tspan></text>
<text
           id="text440"
           style="font-variant:normal;font-size:9.96259975px;font-family:'Nimbus Roman';-inkscape-font-specification:NimbusRomNo9L-Regu;writing-mode:lr-tb;fill:#000000;fill-opacity:1;fill-rule:nonzero;stroke:none"
           transform="matrix(1,0,0,-1,108,62.138)"><tspan
             id="tspan438"
             y="0"
             x="0 2.7696028 7.7509027 12.174297 17.93268 22.91398 27.337374 34.211567 38.634964 43.058357 47.48175 51.905148 55.780598 62.644829 65.414429 73.394478 76.164078 81.145378 88.557549 92.433006 96.8564 104.6073 112.02943 114.79904 119.78034 123.09789 128.07919 131.39673 139.14763 143.57103 146.34064 149.11023 154.09154 162.06161 169.25461 176.67674 181.65805 186.63934 193.72276 199.80991 204.7912 209.2146 214.98294 217.75255 221.62801 227.23694 230.00655 236.31287 243.50587 250.92801 255.35139 260.3327 265.314 268.08362">thathasaccesstothesameinformationwedo.Thatis,ifwecould</tspan></text>
<text
           id="text444"
           style="font-variant:normal;font-size:9.96259975px;font-family:'Nimbus Roman';-inkscape-font-specification:NimbusRomNo9L-ReguItal;writing-mode:lr-tb;fill:#000000;fill-opacity:1;fill-rule:nonzero;stroke:none"
           transform="matrix(1,0,0,-1,384.056,62.138)"><tspan
             id="tspan442"
             y="0"
             x="0 4.9812999 9.9625998 14.385994 18.261446">query</tspan></text>
<text
           id="text448"
           style="font-variant:normal;font-size:9.96259975px;font-family:'Nimbus Roman';-inkscape-font-specification:NimbusRomNo9L-Regu;writing-mode:lr-tb;fill:#000000;fill-opacity:1;fill-rule:nonzero;stroke:none"
           transform="matrix(1,0,0,-1,409.735,62.138)"><tspan
             id="tspan446"
             y="0"
             x="0 2.7696028 7.7509027 15.163077 19.437033 24.418333 29.399633 33.823029 37.140572 42.908916 46.226463 51.207764 57.514091 61.937485 69.917526 74.340919 78.764313 81.53392 84.30352 89.284821">theexpertforanaction</tspan></text>
<text
           id="text452"
           style="font-variant:normal;font-size:9.96259975px;font-family:'Nimbus Roman';-inkscape-font-specification:NimbusRomNo9L-Regu;writing-mode:lr-tb;fill:#000000;fill-opacity:1;fill-rule:nonzero;stroke:none"
           transform="matrix(1,0,0,-1,303.509,32.25)"><tspan
             id="tspan450"
             y="0"
             x="0">1</tspan></text>
</g></g></g></svg>